# 3ds Max Wavefront OBJ Exporter v0.97b - (c)2007 guruware
# File Created: 12.08.2016 00:58:41

mtllib Pillar_Wood_Square_001.mtl

#
# object Pillar_Wood_Square_013
#

v  -9.000000 0.000000 7.000000
v  -9.000000 0.000000 -7.000000
v  -7.000000 0.000000 -9.000000
v  9.000000 0.000000 -7.000000
v  7.000000 0.000000 -9.000000
v  9.000000 0.000000 7.000000
v  7.000000 0.000000 9.000000
v  -7.000000 0.000000 9.000000
v  -7.000000 256.000000 9.000000
v  7.000000 256.000000 9.000000
v  9.000000 256.000000 7.000000
v  7.000000 256.000000 -9.000000
v  9.000000 256.000000 -7.000000
v  -7.000000 256.000000 -9.000000
v  -9.000000 256.000000 -7.000000
v  -9.000000 256.000000 7.000000
# 16 vertices

vn 0.000000 -1.000000 -0.000000
vn 0.000000 1.000000 -0.000000
vn 0.000000 0.000000 1.000000
vn 1.000000 0.000000 -0.000000
vn 0.000000 0.000000 -1.000000
vn -1.000000 0.000000 -0.000000
vn 0.707107 0.000000 0.707107
vn -0.707107 0.000000 0.707107
vn 0.707107 0.000000 -0.707107
vn -0.707107 0.000000 -0.707107
# 10 vertex normals

vt 0.892658 0.884799 0.000000
vt 0.934487 0.926629 0.000000
vt 0.934487 0.938581 0.000000
vt 0.880706 0.980411 0.000000
vt 0.892657 0.980411 0.000000
vt 0.838876 0.938581 0.000000
vt 0.838876 0.926629 0.000000
vt 0.880706 0.884799 0.000000
vt 0.115816 0.119910 0.000000
vt 0.073986 0.161739 0.000000
vt 0.062035 0.161739 0.000000
vt 0.020205 0.107958 0.000000
vt 0.020205 0.119909 0.000000
vt 0.062035 0.066128 0.000000
vt 0.073986 0.066128 0.000000
vt 0.115816 0.107958 0.000000
vt 0.832901 0.932605 0.000000
vt 0.791071 0.974435 0.000000
vt 0.026181 0.209545 0.000000
vt 0.068011 0.167715 0.000000
vt 0.976317 0.789188 0.000000
vt 0.934487 0.831018 0.000000
vt 0.169598 0.066128 0.000000
vt 0.211428 0.024298 0.000000
vt 0.928512 0.836994 0.000000
vt 0.886682 0.878824 0.000000
vt 0.121792 0.113934 0.000000
vt 0.163622 0.072104 0.000000
vt 0.785095 0.980411 0.000000
vt 0.020205 0.215521 0.000000
# 30 texture coords

g Pillar_Wood_Square_013
usemtl 09___Default
s 2
f -16/-30/-10 -15/-29/-10 -14/-28/-10 -13/-27/-10 
f -14/-28/-10 -12/-26/-10 -13/-27/-10 
f -13/-27/-10 -11/-25/-10 -10/-24/-10 -16/-30/-10 
f -9/-23/-10 -16/-30/-10 -10/-24/-10 
s 4
f -8/-22/-9 -7/-21/-9 -6/-20/-9 -5/-19/-9 
f -6/-20/-9 -4/-18/-9 -5/-19/-9 
f -5/-19/-9 -3/-17/-9 -2/-16/-9 -8/-22/-9 
f -1/-15/-9 -8/-22/-9 -2/-16/-9 
s 8
f -9/-23/-8 -10/-24/-8 -7/-21/-8 -8/-22/-8 
s 16
f -11/-14/-7 -13/-13/-7 -4/-12/-7 -6/-11/-7 
s 32
f -12/-10/-6 -14/-9/-6 -3/-8/-6 -5/-7/-6 
s 64
f -15/-6/-5 -16/-5/-5 -1/-4/-5 -2/-3/-5 
s off
f -10/-24/-4 -11/-14/-4 -6/-11/-4 -7/-21/-4 
f -8/-22/-3 -1/-4/-3 -16/-5/-3 -9/-23/-3 
f -13/-13/-2 -12/-2/-2 -5/-1/-2 -4/-12/-2 
f -14/-9/-1 -15/-6/-1 -2/-3/-1 -3/-8/-1 
# 12 polygons - 4 triangles

