# 3ds Max Wavefront OBJ Exporter v0.97b - (c)2007 guruware
# File Created: 12.08.2016 01:07:17

mtllib Roof001_Flat05.mtl

#
# object Roof001_Flat011
#

v  51.333332 0.000000 -51.333328
v  -51.333328 0.000000 -51.333332
v  -51.333332 0.000000 51.333328
v  51.333328 0.000000 51.333332
v  64.000000 0.000000 -51.333328
v  64.000000 0.000000 51.333332
v  -64.000000 0.000000 51.333328
v  -64.000000 0.000000 -51.333332
v  51.333332 0.000000 -64.000000
v  -51.333328 0.000000 -64.000000
v  -51.333332 0.000000 64.000000
v  51.333328 0.000000 64.000000
v  64.000000 0.000000 -64.000000
v  64.000000 0.000000 64.000000
v  -63.000000 13.000000 63.000000
v  -52.333332 13.000000 63.000000
v  -52.333332 13.000000 52.333328
v  -63.000000 13.000000 52.333328
v  -64.000000 0.000000 -64.000000
v  -64.000000 0.000000 64.000000
v  -51.333332 12.000000 64.000000
v  -64.000000 12.000000 64.000000
v  -51.333332 12.000000 51.333328
v  -64.000000 12.000000 51.333328
# 24 vertices

vn 0.000000 1.000000 -0.000000
vn 0.000000 0.000000 1.000000
vn 1.000000 0.000000 -0.000000
vn 0.000000 0.000000 -1.000000
vn -1.000000 0.000000 -0.000000
vn 0.000000 0.707107 0.707107
vn 0.707107 0.707107 -0.000000
vn 0.000000 0.707107 -0.707107
vn -0.707107 0.707107 -0.000000
# 9 vertex normals

vt 0.885677 0.885677 0.000000
vt 0.233120 0.885678 0.000000
vt 0.233120 0.233120 0.000000
vt 0.885678 0.233120 0.000000
vt 0.966188 0.885676 0.000000
vt 0.966188 0.233120 0.000000
vt 0.152610 0.233121 0.000000
vt 0.152610 0.885678 0.000000
vt 0.885677 0.966188 0.000000
vt 0.233120 0.966188 0.000000
vt 0.233121 0.152610 0.000000
vt 0.885678 0.152610 0.000000
vt 0.966187 0.966187 0.000000
vt 0.966188 0.152610 0.000000
vt 0.083060 0.085002 0.000000
vt 0.146148 0.085002 0.000000
vt 0.146148 0.148090 0.000000
vt 0.083060 0.148090 0.000000
vt 0.152610 0.966188 0.000000
vt 0.076654 0.006278 0.000000
vt 0.152554 0.006278 0.000000
vt 0.152968 0.078182 0.000000
vt 0.076241 0.078182 0.000000
vt 0.224872 0.078596 0.000000
vt 0.224872 0.154496 0.000000
vt 0.152967 0.154909 0.000000
vt 0.152554 0.226814 0.000000
vt 0.076654 0.226814 0.000000
vt 0.076241 0.154909 0.000000
vt 0.004336 0.154496 0.000000
vt 0.004336 0.078596 0.000000
# 31 texture coords

g Roof001_Flat011
usemtl 45___Default
s 1
f -24/-31/-9 -23/-30/-9 -22/-29/-9 -21/-28/-9 
f -20/-27/-9 -24/-31/-9 -21/-28/-9 -19/-26/-9 
f -18/-25/-9 -22/-29/-9 -23/-30/-9 -17/-24/-9 
f -16/-23/-9 -15/-22/-9 -23/-30/-9 -24/-31/-9 
f -14/-21/-9 -13/-20/-9 -21/-28/-9 -22/-29/-9 
f -12/-19/-9 -16/-23/-9 -24/-31/-9 -20/-27/-9 
f -13/-20/-9 -11/-18/-9 -19/-26/-9 -21/-28/-9 
f -10/-17/-9 -9/-16/-9 -8/-15/-9 -7/-14/-9 
f -15/-22/-9 -6/-13/-9 -17/-24/-9 -23/-30/-9 
s off
f -5/-12/-8 -14/-11/-8 -4/-10/-8 -3/-9/-8 
f -14/-8/-7 -22/-7/-7 -2/-6/-7 -4/-10/-7 
f -22/-5/-6 -18/-4/-6 -1/-3/-6 -2/-6/-6 
f -18/-2/-5 -5/-1/-5 -3/-9/-5 -1/-3/-5 
f -3/-9/-4 -4/-10/-4 -9/-16/-4 -10/-17/-4 
f -4/-10/-3 -2/-6/-3 -8/-15/-3 -9/-16/-3 
f -2/-6/-2 -1/-3/-2 -7/-14/-2 -8/-15/-2 
f -1/-3/-1 -3/-9/-1 -10/-17/-1 -7/-14/-1 
# 17 polygons

