# 3ds Max Wavefront OBJ Exporter v0.97b - (c)2007 guruware
# File Created: 12.08.2016 01:05:06

mtllib Roof001_Flat01.mtl

#
# object Roof001_Flat011
#

v  51.333332 0.000000 -51.333328
v  -51.333328 0.000000 -51.333332
v  -51.333332 0.000000 51.333328
v  51.333328 0.000000 51.333332
v  63.000000 13.000000 -51.333328
v  52.333332 13.000000 -51.333328
v  52.333328 13.000000 52.333332
v  63.000000 13.000000 51.333332
v  -63.000000 13.000000 51.333328
v  -52.333332 13.000000 52.333328
v  -52.333328 13.000000 -51.333332
v  -63.000000 13.000000 -51.333332
v  51.333332 0.000000 -64.000000
v  -51.333328 0.000000 -64.000000
v  -51.333332 13.000000 63.000000
v  51.333328 13.000000 63.000000
v  63.000000 13.000000 -63.000000
v  52.333332 13.000000 -63.000000
v  63.000000 13.000000 63.000000
v  -63.000000 13.000000 63.000000
v  -52.333328 13.000000 -63.000000
v  -63.000000 13.000000 -63.000000
v  -64.000000 0.000000 -64.000000
v  -64.000000 0.000000 -51.333332
v  -64.000000 12.000000 -51.333332
v  -64.000000 12.000000 -64.000000
v  -64.000000 0.000000 51.333328
v  -64.000000 12.000000 51.333328
v  -64.000000 0.000000 64.000000
v  -64.000000 12.000000 64.000000
v  -51.333332 0.000000 64.000000
v  -51.333332 12.000000 64.000000
v  51.333328 0.000000 64.000000
v  51.333328 12.000000 64.000000
v  64.000000 0.000000 64.000000
v  64.000000 12.000000 64.000000
v  64.000000 0.000000 51.333332
v  64.000000 12.000000 51.333332
v  64.000000 0.000000 -51.333328
v  64.000000 12.000000 -51.333328
v  64.000000 0.000000 -64.000000
v  64.000000 12.000000 -64.000000
v  51.333332 12.000000 -64.000000
v  51.333332 12.000000 -51.333328
v  51.333328 12.000000 51.333332
v  -51.333332 12.000000 51.333328
v  -51.333328 12.000000 -51.333332
v  -51.333328 12.000000 -64.000000
# 48 vertices

vn 0.000000 1.000000 -0.000000
vn -1.000000 0.000000 -0.000000
vn 0.000000 0.000000 1.000000
vn 1.000000 0.000000 -0.000000
vn 0.000000 0.000000 -1.000000
vn 1.000000 0.000000 0.000000
vn -0.707107 0.707107 -0.000000
vn 0.000000 0.707107 0.707107
vn 0.707107 0.707107 -0.000000
vn 0.000000 0.707107 -0.707107
vn 0.707107 0.707107 0.000000
# 11 vertex normals

vt 0.541868 0.784451 0.000000
vt 0.026599 0.784451 0.000000
vt 0.026599 0.269182 0.000000
vt 0.541868 0.269182 0.000000
vt 0.701096 0.668906 0.000000
vt 0.647852 0.668956 0.000000
vt 0.647721 0.148822 0.000000
vt 0.701179 0.153802 0.000000
vt 0.862407 0.152286 0.000000
vt 0.915866 0.147305 0.000000
vt 0.915736 0.667439 0.000000
vt 0.862492 0.667390 0.000000
vt 0.541868 0.848023 0.000000
vt 0.026599 0.848023 0.000000
vt 0.026599 0.093222 0.000000
vt 0.541868 0.093222 0.000000
vt 0.546887 0.146756 0.000000
vt 0.021581 0.146756 0.000000
vt 0.700957 0.727044 0.000000
vt 0.648049 0.727098 0.000000
vt 0.642970 0.095374 0.000000
vt 0.701298 0.095629 0.000000
vt 0.862287 0.094112 0.000000
vt 0.920615 0.093857 0.000000
vt 0.915540 0.725581 0.000000
vt 0.862632 0.725528 0.000000
vt 0.796336 0.731700 0.000000
vt 0.795600 0.667845 0.000000
vt 0.855683 0.667491 0.000000
vt 0.856833 0.731357 0.000000
vt 0.795365 0.152087 0.000000
vt 0.855496 0.152226 0.000000
vt 0.795768 0.088319 0.000000
vt 0.856094 0.088331 0.000000
vt 0.795817 0.024753 0.000000
vt 0.856044 0.024753 0.000000
vt 0.026599 0.025898 0.000000
vt 0.541868 0.025898 0.000000
vt 0.541868 0.086124 0.000000
vt 0.026599 0.086124 0.000000
vt 0.767767 0.026269 0.000000
vt 0.767817 0.089835 0.000000
vt 0.707491 0.089847 0.000000
vt 0.707541 0.026269 0.000000
vt 0.768220 0.153603 0.000000
vt 0.708090 0.153742 0.000000
vt 0.767988 0.669361 0.000000
vt 0.707905 0.669007 0.000000
vt 0.767253 0.733215 0.000000
vt 0.706757 0.732874 0.000000
vt 0.706411 0.793100 0.000000
vt 0.642839 0.793208 0.000000
vt 0.642288 0.732983 0.000000
vt 0.581815 0.733485 0.000000
vt 0.580957 0.669655 0.000000
vt 0.641040 0.669165 0.000000
vt 0.580306 0.154125 0.000000
vt 0.640562 0.153950 0.000000
vt 0.541868 0.214080 0.000000
vt 0.026599 0.214080 0.000000
vt 0.026599 0.153854 0.000000
vt 0.541868 0.153854 0.000000
vt 0.983281 0.152607 0.000000
vt 0.982631 0.668138 0.000000
vt 0.922548 0.667648 0.000000
vt 0.923024 0.152433 0.000000
vt 0.981774 0.731967 0.000000
vt 0.921301 0.731466 0.000000
vt 0.920752 0.791691 0.000000
vt 0.857180 0.791584 0.000000
vt 0.920297 0.086749 0.000000
vt 0.643288 0.088266 0.000000
# 72 texture coords

g Roof001_Flat011
usemtl 41___Default
s 1
f -48/-72/-11 -47/-71/-11 -46/-70/-11 -45/-69/-11 
f -44/-68/-11 -43/-67/-11 -42/-66/-11 -41/-65/-11 
f -40/-64/-11 -39/-63/-11 -38/-62/-11 -37/-61/-11 
f -36/-60/-11 -35/-59/-11 -47/-71/-11 -48/-72/-11 
f -34/-58/-11 -33/-57/-11 -42/-56/-11 -39/-55/-11 
f -32/-54/-11 -31/-53/-11 -43/-67/-11 -44/-68/-11 
f -33/-52/-11 -30/-51/-11 -41/-65/-11 -42/-66/-11 
f -29/-50/-11 -34/-49/-11 -39/-63/-11 -40/-64/-11 
f -28/-48/-11 -27/-47/-11 -37/-61/-11 -38/-62/-11 
s off
f -26/-46/-10 -25/-45/-10 -24/-44/-10 -23/-43/-10 
f -25/-45/-10 -22/-42/-10 -21/-41/-10 -24/-44/-10 
f -22/-42/-10 -20/-40/-10 -19/-39/-10 -21/-41/-10 
f -20/-40/-9 -18/-38/-9 -17/-37/-9 -19/-39/-9 
f -18/-36/-9 -16/-35/-9 -15/-34/-9 -17/-33/-9 
f -16/-32/-9 -14/-31/-9 -13/-30/-9 -15/-29/-9 
f -14/-31/-8 -12/-28/-8 -11/-27/-8 -13/-30/-8 
f -12/-28/-8 -10/-26/-8 -9/-25/-8 -11/-27/-8 
f -10/-26/-8 -8/-24/-8 -7/-23/-8 -9/-25/-8 
f -8/-22/-7 -36/-21/-7 -6/-20/-7 -7/-23/-7 
f -36/-19/-10 -48/-18/-10 -5/-17/-10 -6/-20/-10 
f -48/-18/-10 -45/-16/-10 -4/-15/-10 -5/-17/-10 
f -45/-14/-7 -46/-13/-7 -3/-12/-7 -4/-11/-7 
f -46/-10/-6 -47/-9/-6 -2/-8/-6 -3/-7/-6 
f -47/-9/-8 -35/-6/-8 -1/-5/-8 -2/-8/-8 
f -35/-4/-7 -26/-3/-7 -23/-43/-7 -1/-5/-7 
f -23/-43/-5 -24/-44/-5 -37/-61/-5 -27/-47/-5 
f -24/-44/-5 -21/-41/-5 -40/-64/-5 -37/-61/-5 
f -21/-41/-5 -19/-39/-5 -29/-50/-5 -40/-64/-5 
f -19/-39/-4 -17/-2/-4 -34/-49/-4 -29/-50/-4 
f -17/-33/-4 -15/-34/-4 -33/-57/-4 -34/-58/-4 
f -15/-1/-4 -13/-30/-4 -30/-51/-4 -33/-52/-4 
f -13/-30/-3 -11/-27/-3 -41/-65/-3 -30/-51/-3 
f -11/-27/-3 -9/-25/-3 -44/-68/-3 -41/-65/-3 
f -9/-25/-3 -7/-23/-3 -32/-54/-3 -44/-68/-3 
f -7/-23/-2 -6/-20/-2 -31/-53/-2 -32/-54/-2 
f -6/-20/-5 -5/-17/-5 -43/-67/-5 -31/-53/-5 
f -5/-17/-5 -4/-15/-5 -42/-66/-5 -43/-67/-5 
f -4/-11/-2 -3/-12/-2 -39/-55/-2 -42/-56/-2 
f -3/-7/-1 -2/-8/-1 -38/-62/-1 -39/-63/-1 
f -2/-8/-3 -1/-5/-3 -28/-48/-3 -38/-62/-3 
f -1/-5/-2 -23/-43/-2 -27/-47/-2 -28/-48/-2 
# 41 polygons

