# 3ds Max Wavefront OBJ Exporter v0.97b - (c)2007 guruware
# File Created: 12.08.2016 01:01:29

mtllib Support_Wood_long.mtl

#
# object Support_Wood_long001
#

v  -4.295984 11.033440 117.820702
v  4.295984 11.033440 117.820702
v  4.295984 11.033440 8.763573
v  -4.295984 11.033440 8.763573
v  -3.940093 1.583963 118.843452
v  3.940093 1.583963 118.843452
v  4.295984 1.939790 118.843452
v  3.940093 10.174395 118.843452
v  4.295984 9.818569 118.843452
v  -3.940093 10.174395 118.843452
v  -4.295984 9.818569 118.843452
v  -4.295984 1.939790 118.843452
v  5.155180 1.583963 117.820702
v  5.155180 1.583963 8.763573
v  5.155180 10.174395 8.763573
v  5.155180 10.174395 117.820702
v  4.295984 0.724920 8.763573
v  -4.295984 0.724920 8.763573
v  -5.155180 1.583963 8.763573
v  -5.155180 10.174395 8.763573
v  -5.155180 1.583963 117.820702
v  -5.155180 10.174395 117.820702
v  -4.295984 0.724920 117.820702
v  -4.295984 0.724920 51.492279
v  -4.295983 0.724920 39.472363
v  4.295984 0.724920 39.472359
v  4.295984 0.724920 117.820702
v  4.295984 0.724920 51.492279
v  -4.295984 -27.577692 9.301414
v  -4.295984 -39.867104 9.296059
v  4.295984 -39.867104 9.296059
v  4.295984 -27.577692 9.301414
# 32 vertices

vn 0.000000 1.000000 -0.000000
vn 0.000000 0.000000 1.000000
vn 1.000000 0.000000 -0.000000
vn 0.000000 0.000000 -1.000000
vn -1.000000 0.000000 -0.000000
vn -0.707044 -0.707170 -0.000000
vn -0.707043 -0.707170 -0.000000
vn 0.707044 -0.707170 -0.000000
vn 0.707043 -0.707170 0.000000
vn 0.707044 0.707169 -0.000000
vn -0.707044 0.707169 -0.000000
vn 0.000000 -1.000000 -0.000000
vn 1.000000 -0.000000 0.000000
vn -0.000000 0.729328 -0.684164
vn 0.000000 -0.720673 0.693275
vn 0.000000 -0.765730 0.643162
vn 0.541384 -0.541481 0.643196
vn 0.765673 0.000000 0.643230
vn 0.541384 0.541481 0.643196
vn 0.000000 0.765729 0.643163
vn -0.541384 0.541481 0.643196
vn -0.765673 0.000000 0.643230
vn -0.541384 -0.541481 0.643196
# 23 vertex normals

vt 0.078496 0.153047 0.000000
vt 0.078505 0.086873 0.000000
vt 0.918565 0.086883 0.000000
vt 0.918555 0.153055 0.000000
vt 0.068174 0.240653 0.000000
vt 0.068173 0.301353 0.000000
vt 0.065431 0.304093 0.000000
vt 0.002000 0.301352 0.000000
vt 0.004741 0.304093 0.000000
vt 0.002000 0.240651 0.000000
vt 0.004741 0.237910 0.000000
vt 0.065431 0.237910 0.000000
vt 0.078516 0.011359 0.000000
vt 0.918577 0.011366 0.000000
vt 0.918570 0.077533 0.000000
vt 0.078513 0.077525 0.000000
vt 0.925199 0.004750 0.000000
vt 0.991383 0.004762 0.000000
vt 0.998000 0.011381 0.000000
vt 0.991368 0.084168 0.000000
vt 0.997988 0.077552 0.000000
vt 0.925185 0.084155 0.000000
vt 0.918537 0.228562 0.000000
vt 0.078477 0.228564 0.000000
vt 0.078482 0.162398 0.000000
vt 0.918545 0.162401 0.000000
vt 0.078467 0.237917 0.000000
vt 0.589393 0.237918 0.000000
vt 0.918533 0.237917 0.000000
vt 0.681985 0.237917 0.000000
vt 0.918577 0.002013 0.000000
vt 0.682029 0.002009 0.000000
vt 0.078517 0.002000 0.000000
vt 0.589441 0.002008 0.000000
vt 0.918533 0.304100 0.000000
vt 0.681985 0.304099 0.000000
vt 0.078464 0.304098 0.000000
vt 0.589390 0.304101 0.000000
vt 0.451919 0.542490 0.000000
vt 0.384258 0.612167 0.000000
vt 0.065632 0.611465 0.000000
vt 0.000994 0.542315 0.000000
vt 0.394543 0.409047 0.000000
vt 0.452896 0.476318 0.000000
vt 0.001972 0.476144 0.000000
vt 0.068624 0.408933 0.000000
vt 0.396352 0.342894 0.000000
vt 0.070433 0.342780 0.000000
vt 0.068228 0.008619 0.000000
vt 0.068228 0.004742 0.000000
vt 0.068226 0.074788 0.000000
vt 0.068226 0.014098 0.000000
vt 0.068219 0.084126 0.000000
vt 0.068223 0.080250 0.000000
vt 0.068209 0.150308 0.000000
vt 0.068217 0.089608 0.000000
vt 0.068197 0.159641 0.000000
vt 0.068204 0.155764 0.000000
vt 0.068190 0.225825 0.000000
vt 0.068190 0.165135 0.000000
vt 0.068180 0.235166 0.000000
vt 0.068185 0.231289 0.000000
# 62 texture coords

g Support_Wood_long001
usemtl 13___Default
s 4
f -32/-62/-23 -31/-61/-23 -30/-60/-23 -29/-59/-23 
s 8
f -28/-58/-22 -27/-57/-22 -26/-56/-22 -25/-55/-22 
f -26/-56/-22 -24/-54/-22 -25/-55/-22 
f -25/-55/-22 -23/-53/-22 -22/-52/-22 -28/-58/-22 
f -21/-51/-22 -28/-58/-22 -22/-52/-22 
s 16
f -20/-50/-21 -19/-49/-21 -18/-48/-21 -17/-47/-21 
s 32
f -16/-46/-20 -15/-45/-20 -14/-44/-20 -29/-43/-20 
f -14/-44/-20 -13/-42/-20 -29/-43/-20 
f -29/-43/-20 -30/-41/-20 -18/-48/-20 -16/-46/-20 
f -19/-49/-20 -16/-46/-20 -18/-48/-20 
s 64
f -14/-40/-19 -12/-39/-19 -11/-38/-19 -13/-37/-19 
s off
f -10/-36/-18 -12/-39/-18 -14/-40/-18 -9/-35/-18 
f -14/-40/-17 -15/-34/-17 -8/-33/-17 -9/-35/-17 
f -16/-32/-16 -19/-49/-16 -20/-50/-16 -7/-31/-16 
f -20/-50/-15 -6/-30/-15 -5/-29/-15 -7/-31/-15 
f -31/-61/-14 -17/-47/-14 -18/-48/-14 -30/-60/-14 
f -29/-59/-13 -13/-37/-13 -11/-38/-13 -32/-62/-13 
s 2
f -15/-34/-12 -16/-28/-12 -7/-27/-12 -8/-33/-12 
f -6/-26/-12 -10/-36/-12 -9/-35/-12 -5/-25/-12 
s off
f -9/-24/-19 -8/-23/-19 -4/-22/-19 -3/-21/-19 
f -7/-20/-11 -5/-19/-11 -2/-18/-11 -1/-17/-11 
f -8/-16/-10 -7/-20/-10 -1/-17/-10 -4/-15/-10 
f -5/-19/-9 -9/-24/-9 -3/-21/-9 -2/-18/-9 
f -10/-36/-8 -6/-26/-8 -27/-57/-8 -28/-58/-8 
f -6/-30/-7 -20/-50/-7 -26/-14/-7 -27/-13/-7 
f -20/-50/-6 -17/-47/-6 -24/-12/-6 -26/-11/-6 
f -17/-47/-5 -31/-61/-5 -25/-10/-5 -24/-9/-5 
f -31/-61/-4 -32/-62/-4 -23/-8/-4 -25/-7/-4 
f -32/-62/-3 -11/-38/-3 -22/-6/-3 -23/-5/-3 
f -11/-38/-2 -12/-39/-2 -21/-4/-2 -22/-3/-2 
f -12/-39/-1 -10/-36/-1 -28/-2/-1 -21/-1/-1 
# 27 polygons - 4 triangles

