# 3ds Max Wavefront OBJ Exporter v0.97b - (c)2007 guruware
# File Created: 12.08.2016 00:56:07

mtllib Wall001_M003.mtl

#
# object Wall001_M021
#

v  0.000000 0.000000 10.880920
v  0.000000 96.308975 10.880920
v  -8.117504 96.308975 10.880920
v  -8.117504 0.000000 10.880920
v  0.000000 256.000122 10.880920
v  -8.117504 256.000122 10.880920
v  -8.117504 243.410431 10.880920
v  0.000000 243.410431 10.880920
v  -9.078685 243.410431 9.880920
v  -9.078685 256.000122 9.880920
v  -9.078685 256.000122 7.756241
v  -9.078685 244.415222 7.756241
v  -8.117504 108.703232 10.880920
v  0.000000 108.703232 10.880920
v  -9.078685 108.703232 9.880920
v  -9.078685 243.410431 6.756241
v  -9.078685 243.410431 3.258976
v  -9.078685 108.703232 3.259029
v  0.000000 107.970673 12.883036
v  -9.078685 107.970673 12.883036
v  -9.078685 97.041527 12.883036
v  0.000000 97.041527 12.883036
v  -119.894356 0.000000 10.880920
v  -119.894356 96.308975 10.880920
v  -128.011871 96.308975 10.880920
v  -128.011871 0.000000 10.880920
v  -118.933174 0.000000 5.161742
v  -118.933174 96.308975 5.161742
v  -118.933167 96.308975 9.880920
v  -118.933167 0.000000 9.880920
v  -119.894356 256.000122 10.880919
v  -128.011871 256.000122 10.880919
v  -128.011871 243.410431 10.880920
v  -119.894356 243.410431 10.880920
v  -128.011871 108.703232 10.880920
v  -119.894356 108.703232 10.880920
v  -118.933182 107.970673 12.883036
v  -128.011887 107.970673 12.883036
v  -128.011887 97.041527 12.883036
v  -118.933182 97.041527 12.883036
v  -118.933167 256.000122 9.880919
v  -118.933167 243.410431 9.880920
v  -118.933167 244.415222 7.756241
v  -118.933167 256.000122 7.756241
v  -118.933167 108.703232 9.880920
v  -118.933182 108.703232 3.259028
v  -118.933182 243.410431 3.258975
v  -118.933174 243.410431 6.756241
v  -9.078685 96.308975 9.880920
v  -9.078685 0.000000 9.880920
v  -9.078685 96.308975 5.161743
v  -9.078685 0.000000 5.161743
v  -123.731461 6.404366 7.097500
v  -5.611217 78.588654 7.097501
v  -5.747557 94.198715 7.097502
v  -123.581596 22.676350 7.097501
v  -123.304665 5.743999 5.033384
v  -5.184422 77.928291 5.033386
v  -5.184422 77.928291 6.304352
v  -123.304665 5.743999 6.304350
v  -6.174352 94.859085 5.033387
v  -124.008392 23.336716 5.033386
v  -124.008392 23.336716 6.304352
v  -6.174352 94.859085 6.304352
v  -45.433739 212.163940 3.259002
v  -83.475365 212.163925 3.259002
v  -45.433735 220.737427 3.258989
v  -83.475357 243.410431 3.258976
v  -83.475365 220.737427 3.258989
v  -74.049034 243.410431 1.028087
v  -74.049034 220.737427 1.028100
v  -54.223549 220.737427 1.028100
v  -54.223545 243.410431 1.028087
v  -74.555222 243.410431 5.641456
v  -53.716511 243.410431 5.639050
v  -45.940762 243.410431 5.639050
v  -82.968323 243.410431 5.639186
v  -83.475365 220.737427 5.114922
v  -83.475357 243.410431 5.111537
v  -45.433727 243.410431 3.258976
v  -45.433727 243.410431 5.111537
v  -45.433735 220.737427 5.114923
v  -74.048370 243.410431 5.114080
v  -74.049034 220.737427 5.114922
v  -54.223549 220.737427 5.114922
v  -54.223545 243.410431 5.111537
v  -53.716518 220.737427 5.642435
v  -45.940769 220.737427 5.642435
v  -82.968330 220.737427 5.642434
v  -74.556068 220.737427 5.642435
v  -45.433735 212.163940 5.980418
v  -83.475365 212.163925 5.980417
v  -45.433735 220.737427 5.977033
v  -74.049034 220.737427 5.977032
v  -54.223549 220.737427 5.977032
v  -83.475365 220.737427 5.977032
v  -74.049042 220.207382 6.504754
v  -82.968338 220.207382 6.504754
v  -82.968338 212.693970 6.507720
v  -54.223553 220.207382 6.504754
v  -45.940769 212.693985 6.507721
v  -45.940769 220.207382 6.504755
# 102 vertices

vn 0.000000 0.000000 1.000000
vn -1.000000 0.000000 -0.000000
vn 1.000000 0.000000 -0.000002
vn 1.000000 0.000000 -0.000000
vn 1.000000 0.000128 -0.000001
vn 1.000000 -0.000000 -0.000002
vn 0.000000 1.000000 -0.000000
vn 0.000000 -0.939641 0.342161
vn 0.000000 0.939640 0.342164
vn 0.000000 -0.978758 0.205019
vn 0.000000 -0.978758 0.205021
vn 0.000000 -1.000000 -0.000000
vn 0.000000 0.978757 0.205022
vn -0.000000 0.000000 1.000000
vn -0.707107 0.000000 0.707107
vn 0.707104 0.000000 0.707109
vn 0.707104 0.000000 0.707110
vn 0.000000 -0.000000 1.000000
vn 0.504673 -0.863310 -0.000000
vn -0.502123 0.864796 -0.000000
vn 0.357237 -0.611101 0.706355
vn -0.355466 0.612213 0.706286
vn 1.000000 -0.000005 -0.000002
vn 0.000000 -0.707107 0.707107
vn 0.000001 -0.000000 1.000000
vn -0.000000 0.000001 1.000000
vn 0.000000 0.000001 1.000000
vn 1.000000 -0.000000 -0.000000
vn 1.000000 -0.000015 -0.000084
vn -0.000000 0.000150 1.000000
vn 0.000000 0.000150 1.000000
vn -0.000198 0.000120 1.000000
vn -0.000259 0.000144 1.000000
vn -0.000061 0.000067 1.000000
vn -0.000000 0.000043 1.000000
vn 1.000000 -0.000000 -0.000001
vn -0.000000 0.000397 1.000000
vn -0.000000 0.707248 0.706966
vn 0.000000 -0.706967 0.707246
vn 0.707107 0.000281 0.707106
vn -0.707112 0.000281 0.707101
vn 0.000000 0.707248 0.706966
vn -0.707153 0.000104 0.707060
vn 0.707107 0.000106 0.707106
vn 0.707125 0.000004 0.707088
vn -0.707107 0.000106 0.707106
# 46 vertex normals

vt 0.905360 0.019776 0.000000
vt 0.905360 0.389106 0.000000
vt 0.872819 0.389106 0.000000
vt 0.872819 0.019776 0.000000
vt 0.947863 0.986118 0.000000
vt 0.915321 0.986118 0.000000
vt 0.915321 0.937839 0.000000
vt 0.947863 0.937839 0.000000
vt 0.909872 0.937840 0.000000
vt 0.909872 0.986119 0.000000
vt 0.901685 0.986119 0.000000
vt 0.901685 0.941693 0.000000
vt 0.915321 0.421258 0.000000
vt 0.947863 0.421257 0.000000
vt 0.909872 0.421258 0.000000
vt 0.897832 0.937840 0.000000
vt 0.884356 0.937840 0.000000
vt 0.884356 0.421259 0.000000
vt 0.193664 0.573597 0.000000
vt 0.193663 0.538825 0.000000
vt 0.233705 0.538823 0.000000
vt 0.233706 0.573595 0.000000
vt 0.391694 0.019665 0.000000
vt 0.391694 0.388995 0.000000
vt 0.359152 0.388995 0.000000
vt 0.359152 0.019665 0.000000
vt 0.415327 0.019665 0.000000
vt 0.415327 0.388995 0.000000
vt 0.397143 0.388995 0.000000
vt 0.397143 0.019665 0.000000
vt 0.386026 0.975852 0.000000
vt 0.353667 0.975855 0.000000
vt 0.353664 0.927845 0.000000
vt 0.386024 0.927844 0.000000
vt 0.353660 0.414160 0.000000
vt 0.386020 0.414160 0.000000
vt 0.193661 0.118075 0.000000
vt 0.193660 0.083302 0.000000
vt 0.233702 0.083302 0.000000
vt 0.233703 0.118074 0.000000
vt 0.391444 0.975851 0.000000
vt 0.391442 0.927842 0.000000
vt 0.399583 0.931673 0.000000
vt 0.399584 0.975850 0.000000
vt 0.391440 0.414159 0.000000
vt 0.416814 0.414158 0.000000
vt 0.416814 0.927842 0.000000
vt 0.403414 0.927841 0.000000
vt 0.241550 0.542504 0.000000
vt 0.241550 0.573595 0.000000
vt 0.185820 0.573598 0.000000
vt 0.185819 0.542508 0.000000
vt 0.241546 0.083301 0.000000
vt 0.241547 0.114391 0.000000
vt 0.185817 0.114394 0.000000
vt 0.185816 0.083303 0.000000
vt 0.245227 0.118072 0.000000
vt 0.245232 0.538822 0.000000
vt 0.182138 0.538827 0.000000
vt 0.157761 0.538828 0.000000
vt 0.157757 0.118077 0.000000
vt 0.182135 0.118077 0.000000
vt 0.085620 0.611151 0.000000
vt 0.085620 0.981724 0.000000
vt 0.048237 0.981723 0.000000
vt 0.048237 0.611150 0.000000
vt 0.867369 0.019776 0.000000
vt 0.867369 0.389106 0.000000
vt 0.849185 0.389106 0.000000
vt 0.849185 0.019776 0.000000
vt 0.262600 0.118071 0.000000
vt 0.262605 0.538821 0.000000
vt 0.433417 0.020041 0.000000
vt 0.834523 0.020041 0.000000
vt 0.834523 0.389369 0.000000
vt 0.433418 0.389370 0.000000
vt 0.034648 0.556465 0.000000
vt 0.034648 0.081067 0.000000
vt 0.086693 0.046864 0.000000
vt 0.086693 0.522262 0.000000
vt 0.026078 0.556465 0.000000
vt 0.026078 0.081067 0.000000
vt 0.030630 0.081067 0.000000
vt 0.030630 0.556465 0.000000
vt 0.095263 0.046864 0.000000
vt 0.095263 0.522262 0.000000
vt 0.090711 0.522262 0.000000
vt 0.090711 0.046864 0.000000
vt 0.090209 0.981725 0.000000
vt 0.090203 0.611151 0.000000
vt 0.434957 0.414593 0.000000
vt 0.870192 0.414593 0.000000
vt 0.870192 0.925124 0.000000
vt 0.726156 0.806701 0.000000
vt 0.575438 0.806701 0.000000
vt 0.434957 0.925124 0.000000
vt 0.726156 0.839196 0.000000
vt 0.575438 0.925126 0.000000
vt 0.575438 0.839196 0.000000
vt 0.139220 0.719521 0.000000
vt 0.249127 0.719519 0.000000
vt 0.249127 0.819979 0.000000
vt 0.139220 0.819978 0.000000
vt 0.093819 0.760850 0.000000
vt 0.093830 0.831145 0.000000
vt 0.093830 0.857378 0.000000
vt 0.093826 0.732471 0.000000
vt 0.139232 0.640731 0.000000
vt 0.249140 0.640731 0.000000
vt 0.249139 0.649767 0.000000
vt 0.139232 0.649753 0.000000
vt 0.249138 0.895535 0.000000
vt 0.139231 0.895535 0.000000
vt 0.139230 0.886512 0.000000
vt 0.249138 0.886498 0.000000
vt 0.139222 0.699634 0.000000
vt 0.249130 0.699629 0.000000
vt 0.249130 0.839868 0.000000
vt 0.139222 0.839854 0.000000
vt 0.249133 0.843484 0.000000
vt 0.249136 0.882874 0.000000
vt 0.139228 0.882881 0.000000
vt 0.139225 0.843480 0.000000
vt 0.139225 0.696012 0.000000
vt 0.139230 0.653383 0.000000
vt 0.249137 0.653393 0.000000
vt 0.249133 0.696010 0.000000
vt 0.330171 0.671744 0.000000
vt 0.330171 0.864521 0.000000
vt 0.316382 0.865059 0.000000
vt 0.316382 0.671209 0.000000
vt 0.274288 0.869816 0.000000
vt 0.273758 0.865071 0.000000
vt 0.315848 0.878855 0.000000
vt 0.274288 0.657411 0.000000
vt 0.315849 0.657413 0.000000
vt 0.274289 0.666453 0.000000
vt 0.269030 0.719513 0.000000
vt 0.273228 0.719512 0.000000
vt 0.273228 0.819986 0.000000
vt 0.269030 0.819985 0.000000
vt 0.271597 0.861964 0.000000
vt 0.271598 0.822557 0.000000
vt 0.271598 0.716941 0.000000
vt 0.271597 0.674309 0.000000
vt 0.273758 0.671200 0.000000
vt 0.276861 0.719512 0.000000
vt 0.276860 0.674308 0.000000
vt 0.313282 0.674313 0.000000
vt 0.276861 0.819984 0.000000
vt 0.313282 0.861956 0.000000
vt 0.276860 0.861962 0.000000
vt 0.269027 0.864534 0.000000
vt 0.269027 0.671739 0.000000
vt 0.108777 0.762554 0.000000
vt 0.108781 0.829432 0.000000
vt 0.095540 0.829433 0.000000
vt 0.095529 0.762558 0.000000
vt 0.095541 0.859090 0.000000
vt 0.101548 0.859090 0.000000
vt 0.101548 0.981727 0.000000
vt 0.101542 0.611149 0.000000
vt 0.095537 0.730760 0.000000
vt 0.101543 0.730759 0.000000
vt 0.726156 0.925126 0.000000
vt 0.274288 0.878857 0.000000
# 166 texture coords

g Wall001_M021
usemtl 01___Default
s 8
f -102/-166/-46 -101/-165/-46 -100/-164/-46 -99/-163/-46 
f -98/-162/-46 -97/-161/-46 -96/-160/-46 -95/-159/-46 
s 64
f -94/-158/-45 -93/-157/-45 -92/-156/-45 -91/-155/-45 
s 8
f -95/-159/-46 -96/-160/-46 -90/-154/-46 -89/-153/-46 
s 64
f -88/-152/-45 -94/-158/-45 -87/-151/-45 -86/-150/-45 
f -88/-152/-45 -86/-150/-45 -85/-149/-45 
s 8
f -84/-148/-46 -83/-147/-46 -82/-146/-46 -81/-145/-46 
f -80/-144/-46 -79/-143/-46 -78/-142/-46 -77/-141/-46 
s 16
f -76/-140/-44 -75/-139/-44 -74/-138/-44 -73/-137/-44 
s 8
f -72/-136/-46 -71/-135/-46 -70/-134/-46 -69/-133/-46 
f -69/-133/-46 -70/-134/-46 -68/-132/-46 -67/-131/-46 
f -66/-130/-46 -65/-129/-46 -64/-128/-46 -63/-127/-46 
s 16
f -62/-126/-43 -61/-125/-42 -60/-124/-43 -59/-123/-43 
f -58/-122/-41 -57/-121/-41 -56/-120/-44 -61/-125/-42 
f -55/-119/-40 -61/-125/-42 -56/-120/-44 
s off
f -100/-118/-39 -101/-117/-39 -81/-145/-39 -82/-146/-39 
f -89/-116/-38 -90/-115/-38 -83/-147/-38 -84/-148/-38 
f -78/-114/-39 -79/-113/-39 -63/-127/-39 -64/-128/-39 
f -67/-112/-38 -68/-111/-38 -65/-129/-38 -66/-130/-38 
s 1
f -100/-118/-37 -79/-113/-36 -74/-110/-35 -54/-109/-35 
s 2
f -82/-146/-46 -83/-147/-46 -66/-130/-46 -63/-127/-46 
s 1
f -90/-115/-34 -67/-112/-34 -66/-130/-38 -83/-147/-38 
f -88/-108/-40 -85/-107/-40 -57/-106/-40 -58/-105/-40 
s 2
f -60/-104/-46 -91/-103/-46 -92/-102/-46 -59/-101/-46 
s 64
f -53/-100/-45 -54/-99/-45 -52/-98/-45 -51/-97/-45 
s 1
f -54/-109/-35 -74/-110/-35 -75/-96/-35 -52/-95/-35 
s 4
f -76/-94/-33 -51/-93/-33 -52/-92/-33 -75/-91/-33 
s off
f -97/-161/-32 -93/-157/-32 -94/-158/-32 -96/-160/-32 
f -96/-160/-32 -94/-158/-32 -88/-152/-32 -90/-154/-32 
f -100/-164/-32 -54/-99/-32 -53/-100/-32 -99/-163/-32 
f -80/-144/-31 -73/-137/-31 -74/-138/-31 -79/-143/-31 
f -69/-133/-31 -61/-125/-31 -62/-126/-31 -72/-136/-31 
f -67/-131/-30 -58/-122/-30 -61/-125/-30 -69/-133/-30 
s 1
f -88/-108/-40 -58/-105/-40 -67/-112/-34 -90/-115/-34 
f -82/-146/-39 -63/-127/-39 -79/-113/-36 -100/-118/-37 
s 4
f -50/-90/-29 -49/-89/-29 -48/-88/-29 -47/-87/-29 
s 8
f -46/-86/-28 -45/-85/-28 -44/-84/-28 -43/-83/-28 
s 32
f -42/-82/-27 -41/-81/-27 -40/-80/-27 -39/-79/-27 
s off
f -50/-90/-26 -43/-83/-26 -44/-84/-26 -49/-89/-26 
f -48/-88/-25 -39/-79/-25 -40/-80/-25 -47/-87/-25 
f -94/-158/-45 -91/-155/-45 -87/-151/-45 
f -60/-124/-24 -61/-125/-24 -55/-119/-24 
f -87/-78/-23 -91/-103/-23 -60/-104/-23 -55/-77/-23 
s 2
f -57/-76/-33 -85/-75/-33 -86/-74/-46 -38/-73/-22 
f -57/-76/-33 -38/-73/-22 -37/-72/-21 -56/-71/-21 
f -38/-73/-22 -86/-74/-46 -36/-70/-21 
f -35/-69/-21 -56/-71/-21 -34/-68/-20 
f -33/-67/-20 -32/-66/-20 -31/-65/-20 -30/-64/-20 
s 8
f -29/-63/-35 -28/-62/-35 -27/-61/-35 -87/-78/-35 
f -87/-78/-35 -55/-77/-35 -26/-60/-35 -29/-63/-35 
s off
f -35/-59/-45 -34/-58/-45 -25/-57/-45 -24/-56/-45 
f -36/-55/-19 -23/-54/-19 -22/-53/-19 -21/-52/-19 
f -32/-66/-18 -33/-67/-18 -20/-51/-18 -19/-50/-18 
f -30/-64/-45 -31/-65/-45 -18/-49/-45 -17/-48/-45 
s 1
f -16/-47/-17 -15/-46/-17 -27/-45/-17 -28/-44/-16 
f -29/-43/-15 -26/-42/-14 -14/-41/-13 -13/-40/-12 
s off
f -37/-39/-35 -38/-38/-35 -12/-37/-35 -11/-36/-35 
f -21/-35/-11 -10/-34/-11 -12/-37/-11 -38/-33/-11 
f -34/-32/-45 -37/-31/-45 -25/-30/-45 
f -32/-66/-40 -19/-29/-40 -9/-28/-40 -31/-65/-40 
f -9/-28/-40 -8/-27/-40 -18/-26/-40 -31/-65/-40 
f -15/-25/-40 -16/-24/-40 -8/-27/-40 -10/-34/-40 
f -13/-23/-40 -14/-22/-40 -7/-21/-40 -9/-28/-40 
f -6/-20/-10 -5/-19/-10 -4/-18/-10 -3/-17/-10 
f -3/-17/-10 -4/-18/-10 -2/-16/-10 -1/-15/-10 
f -8/-27/-9 -3/-17/-9 -1/-15/-9 -10/-34/-9 
f -7/-21/-9 -5/-19/-9 -6/-20/-9 -9/-28/-9 
f -12/-37/-8 -2/-16/-8 -4/-18/-8 -11/-36/-8 
f -10/-34/-7 -1/-15/-7 -2/-16/-7 -12/-37/-7 
f -11/-36/-6 -4/-18/-6 -5/-19/-6 -7/-21/-6 
f -9/-28/-5 -6/-20/-5 -3/-17/-5 -8/-27/-5 
f -21/-14/-40 -15/-25/-40 -10/-34/-40 
f -25/-13/-40 -7/-21/-40 -14/-22/-40 
f -18/-26/-40 -8/-27/-40 -16/-24/-40 
f -19/-29/-40 -13/-23/-40 -9/-28/-40 
f -25/-57/-4 -14/-41/-4 -26/-42/-4 -24/-56/-4 
f -22/-53/-3 -27/-45/-3 -15/-46/-3 -21/-52/-3 
f -20/-51/-2 -29/-43/-2 -13/-40/-2 -19/-50/-2 
f -18/-49/-1 -16/-47/-1 -28/-44/-1 -17/-48/-1 
s 8
f -33/-12/-35 -30/-11/-35 -17/-10/-35 -20/-9/-35 
f -29/-63/-35 -20/-9/-35 -17/-10/-35 -28/-62/-35 
f -22/-8/-35 -23/-7/-35 -86/-6/-35 
f -27/-61/-35 -22/-8/-35 -86/-6/-35 -87/-78/-35 
f -55/-77/-35 -56/-5/-35 -24/-4/-35 -26/-60/-35 
f -56/-5/-35 -35/-3/-35 -24/-4/-35 
s 2
f -86/-74/-46 -23/-2/-20 -36/-70/-21 
f -56/-71/-21 -37/-72/-21 -34/-68/-20 
s off
f -11/-36/-45 -7/-21/-45 -25/-30/-45 -37/-31/-45 
f -38/-33/-19 -36/-1/-19 -21/-35/-19 
# 73 polygons - 16 triangles

