# 3ds Max Wavefront OBJ Exporter v0.97b - (c)2007 guruware
# File Created: 12.08.2016 00:57:25

mtllib Wall001_C003.mtl

#
# object Wall001_C019
#

v  0.000839 0.000000 10.997116
v  -8.045662 0.000000 10.997116
v  -8.045662 96.308975 10.997116
v  0.000839 96.308975 10.997116
v  0.000839 256.000122 10.997116
v  0.000839 243.410431 10.997116
v  -8.045662 243.410431 10.997116
v  -8.045662 256.000122 10.997116
v  -8.998444 243.410431 9.997116
v  -8.998444 244.415222 7.872444
v  -8.998444 256.000122 7.872444
v  -8.998444 256.000122 9.997116
v  0.000839 108.703232 10.997116
v  -8.045662 108.703232 10.997116
v  -8.998444 108.703232 9.997116
v  -8.998444 108.703232 3.375244
v  -8.998444 243.410431 3.375198
v  -8.998444 243.410431 6.872444
v  0.000839 107.970673 12.999222
v  0.000839 97.041527 12.999222
v  -8.998444 97.041527 12.999222
v  -8.998444 107.970673 12.999222
v  -109.130844 0.000000 10.997124
v  -125.054703 0.000000 10.997169
v  -125.054703 96.308975 10.997169
v  -109.130844 96.308975 10.997124
v  -108.178085 0.000000 5.277969
v  -108.178070 0.000000 9.997124
v  -108.178070 96.308975 9.997124
v  -108.178085 96.308975 5.277969
v  -109.130844 256.000122 10.997124
v  -109.130844 243.410431 10.997124
v  -125.054703 243.410431 10.997169
v  -125.054703 256.000122 10.997169
v  -109.130844 108.703232 10.997124
v  -125.054703 108.703232 10.997169
v  -108.178085 107.970673 12.999222
v  -108.178085 97.041527 12.999222
v  -126.008759 97.041527 12.999374
v  -126.008759 107.970673 12.999374
v  -108.178070 256.000122 9.997124
v  -108.178078 256.000122 7.872452
v  -108.178078 244.415222 7.872452
v  -108.178070 243.410431 9.997124
v  -108.178093 243.410431 3.375214
v  -108.178093 108.703232 3.375259
v  -108.178070 108.703232 9.997124
v  -108.178085 243.410431 6.872467
v  -127.991318 97.041527 10.995628
v  -127.991318 107.970673 10.995628
v  -126.008003 108.703232 10.036812
v  -126.008003 96.308975 10.036812
v  -8.998444 96.308975 9.997116
v  -62.810741 177.760406 -0.364990
v  -62.893623 211.841690 -0.364990
v  -49.345039 211.897751 -0.364990
v  -49.261650 177.816376 -0.364990
v  -8.998444 0.000000 9.997116
v  -8.998444 0.000000 5.277954
v  -8.998444 96.308975 5.277954
v  -126.008003 0.000000 10.036812
v  -126.008003 243.410431 10.036812
v  -126.008003 256.000122 10.036812
v  -112.918381 6.404362 7.446686
v  -112.769844 22.676348 7.446686
v  -5.680443 94.198708 7.446663
v  -5.545296 78.588646 7.446663
v  -112.495323 5.744000 5.382576
v  -112.495323 5.744000 6.653534
v  -5.122246 77.928291 6.653511
v  -5.122246 77.928291 5.382553
v  -6.103508 94.859085 5.382553
v  -6.103500 94.859085 6.653519
v  -113.192902 23.336712 6.653534
v  -113.192902 23.336712 5.382576
v  -86.625443 169.857101 3.375237
v  -69.671432 169.606506 3.375244
v  -52.717422 169.751541 3.375252
v  -35.763420 169.897171 3.375259
v  -26.091049 170.119461 3.375237
v  -26.672791 222.187531 3.375229
v  -43.444786 221.848587 3.375237
v  -60.216801 221.747589 3.375229
v  -76.988800 221.803253 3.375229
v  -87.207191 221.925171 3.375237
v  -86.534531 207.255783 3.375237
v  -86.303223 192.586411 3.375237
v  -86.361557 177.917023 3.375237
v  -25.569099 184.166550 3.375237
v  -25.926781 198.213608 3.375229
v  -26.001900 212.260696 3.375229
v  -26.454468 197.938934 5.230377
v  -26.154373 184.349106 5.230385
v  -34.492760 189.037811 5.230400
v  -34.819496 200.169632 5.230400
v  -85.474205 192.831161 5.230385
v  -85.739410 207.043289 5.230377
v  -76.844681 200.727951 5.230385
v  -76.519112 189.596100 5.230385
v  -59.781254 221.006943 5.230370
v  -43.460251 221.143188 5.230377
v  -49.017128 212.547821 5.230392
v  -62.340084 212.417343 5.230392
v  -52.767460 170.379364 5.230400
v  -69.270378 170.264801 5.230392
v  -62.844742 176.955673 5.230392
v  -49.521202 177.094498 5.230392
v  -35.663719 169.852921 4.749817
v  -25.991348 170.088455 4.749794
v  -69.571732 169.583771 4.749802
v  -52.617733 169.709076 4.749809
v  -86.318802 177.944504 4.749794
v  -86.525749 169.884567 4.749794
v  -86.456833 207.283264 4.749786
v  -86.196175 192.613876 4.749794
v  -76.869110 221.798279 4.749779
v  -87.087509 221.952637 4.749786
v  -43.325104 221.837128 4.749786
v  -60.097111 221.709015 4.749779
v  -26.009712 212.229691 4.749786
v  -26.553108 222.156525 4.749779
v  -25.482384 184.135544 4.749794
v  -25.819336 198.182617 4.749786
v  -62.780903 211.738388 4.749802
v  -49.232315 211.867172 4.749802
v  -76.144943 189.228912 -0.364998
v  -75.860039 189.150711 4.749794
v  -76.188965 200.511169 4.749794
v  -76.346481 200.589371 -0.364998
v  -49.006012 177.785812 4.749802
v  -62.555099 177.657074 4.749802
v  -35.700226 200.758698 -0.364983
v  -35.542717 200.633682 4.749809
v  -35.213295 189.273254 4.749809
v  -35.498184 189.398209 -0.364983
v  -76.104172 177.790268 4.749794
v  -85.550537 178.619034 5.230385
v  -76.689178 178.464233 5.230385
v  -77.455513 221.100754 5.230370
v  -86.320389 221.255417 5.230377
v  -76.329483 211.871597 4.749794
v  -76.995361 211.859818 5.230385
v  -76.168289 177.099457 5.230385
v  -85.706284 177.247269 5.230385
v  -35.456924 177.912827 4.749809
v  -36.264542 170.519577 5.230408
v  -36.197655 177.207718 5.230400
v  -85.773293 170.559113 5.230385
v  -35.683739 211.994110 4.749809
v  -35.694183 212.667465 5.230400
v  -26.696785 212.900513 5.230377
v  -76.102249 221.109909 5.230370
v  -75.663033 212.554794 5.230385
v  -27.139252 221.455582 5.230370
v  -26.672623 211.528763 5.230377
v  -34.993355 211.301437 5.230400
v  -34.911278 170.531967 5.230408
v  -26.592155 170.759262 5.230385
v  -34.765869 177.906006 5.230400
v  -76.359833 177.868484 -0.364998
v  -76.442207 211.949814 -0.364998
v  -35.796455 212.119141 -0.364983
v  -35.712563 178.037781 -0.364983
# 163 vertices

vn 0.000000 0.000000 1.000000
vn -1.000000 0.000000 0.000000
vn 0.000003 0.000000 1.000000
vn 1.000000 0.000000 -0.000002
vn 0.000009 0.000000 1.000000
vn 1.000000 0.000000 -0.000000
vn 1.000000 0.000000 -0.000001
vn 1.000000 -0.000000 -0.000002
vn 0.000000 1.000000 -0.000000
vn -0.721599 0.000000 0.692311
vn 0.000000 -0.943856 0.330356
vn 0.000000 0.943855 0.330359
vn 0.000002 -0.943859 0.330348
vn 0.000002 0.943858 0.330351
vn -0.233015 0.946372 0.223794
vn -0.233013 -0.946373 0.223792
vn 0.000000 -0.980654 0.195749
vn 0.000000 -1.000000 -0.000000
vn 0.000000 0.980654 0.195751
vn -0.000000 0.000000 1.000000
vn -0.000000 -0.000000 1.000000
vn -0.734511 0.000000 0.678596
vn -0.734512 0.000000 0.678596
vn -0.720472 0.000000 0.693484
vn 0.734514 0.000000 0.678593
vn 0.000000 -0.943857 0.330356
vn 0.000000 -0.000000 1.000000
vn 0.552704 -0.833378 -0.000000
vn -0.550184 0.835043 0.000003
vn -0.550184 0.835043 0.000000
vn 0.400792 -0.604322 0.688593
vn -0.398957 0.605518 0.688608
vn 1.000000 -0.000005 -0.000002
vn 0.000000 -0.720960 0.692976
vn 0.000001 0.000000 1.000000
vn -0.000000 0.000001 1.000000
vn 0.000001 0.000001 1.000000
vn 0.000000 0.000001 1.000000
vn -0.000001 0.000000 1.000000
vn 0.000001 -0.000000 1.000000
vn 0.000003 -0.000000 1.000000
vn 0.000002 0.000000 1.000000
vn -0.000000 0.000003 1.000000
vn -0.000000 0.000002 1.000000
vn 0.023332 -0.999341 -0.027808
vn 0.007863 -0.999699 -0.023231
vn -0.998332 0.029558 0.049598
vn -0.997719 -0.016959 0.065337
vn 0.013334 0.999871 -0.008951
vn -0.006737 0.999816 0.017974
vn 0.997362 0.061835 -0.038022
vn 0.997388 0.024998 -0.067767
vn 0.006729 -0.999897 -0.012662
vn 0.998857 0.023639 -0.041544
vn -0.006724 0.999895 0.012845
vn -0.998865 -0.023683 0.041334
vn -0.009534 -0.596623 0.802465
vn -0.567256 -0.010469 0.823475
vn 0.009351 0.585312 0.810754
vn 0.609199 0.032211 0.792363
vn 0.607570 0.017921 0.794064
vn 0.008880 0.588691 0.808309
vn -0.005769 0.587299 0.809349
vn 0.594430 -0.011181 0.804070
vn 0.004222 -0.596996 0.802233
vn -0.587453 0.011061 0.809183
vn 0.014701 -0.593692 0.804558
vn 0.005674 -0.596129 0.802869
vn -0.568615 -0.030526 0.822037
vn -0.004601 0.583775 0.811902
vn 0.613495 0.033173 0.789001
vn -0.014834 0.584579 0.811201
vn 0.603982 0.014113 0.796873
vn 0.015181 -0.598154 0.801237
vn -0.570143 0.013190 0.821440
vn -0.571406 -0.016897 0.820493
vn 0.000002 -0.000000 1.000000
vn -0.000001 0.000001 1.000000
vn -0.996520 -0.044874 0.070236
vn -0.998594 0.006243 0.052646
vn 0.997106 -0.037089 -0.066364
vn 0.999344 0.009573 -0.034912
vn 0.998466 -0.020447 -0.051461
vn 0.999620 0.010536 -0.025452
vn -0.999622 -0.010581 0.025358
vn -0.998458 0.020402 0.051635
vn -0.565459 -0.024047 0.824426
vn -0.555417 0.003878 0.831563
vn 0.616844 -0.011515 0.787001
vn 0.600774 0.007884 0.799380
vn 0.605297 -0.021019 0.795722
vn 0.602792 0.009032 0.797848
vn -0.578550 -0.008210 0.815606
vn -0.573115 0.013347 0.819366
vn -0.000001 -0.000000 1.000000
vn 0.000001 0.000002 1.000000
vn 0.000001 0.000004 1.000000
vn -0.000001 0.000002 1.000000
vn -0.016040 -0.999868 0.002776
vn 0.008418 -0.999492 -0.030746
vn -0.019355 0.999678 0.016402
vn 0.004262 0.999882 0.014795
vn -0.008784 -0.999821 -0.016782
vn 0.012679 -0.999810 -0.014819
vn -0.012682 0.999805 0.015154
vn 0.008782 0.999825 0.016548
vn -0.005179 0.587163 0.809452
vn 0.005940 0.584212 0.811580
vn -0.010356 -0.590175 0.807209
vn 0.005016 -0.598969 0.800757
vn -0.005868 -0.590480 0.807031
vn 0.005399 -0.596455 0.802628
vn -0.011079 0.588269 0.808590
vn 0.003367 0.587461 0.809245
# 114 vertex normals

vt 0.905360 0.019776 0.000000
vt 0.872819 0.019776 0.000000
vt 0.872819 0.389106 0.000000
vt 0.905360 0.389106 0.000000
vt 0.912291 0.986118 0.000000
vt 0.912291 0.937839 0.000000
vt 0.879749 0.937839 0.000000
vt 0.879749 0.986118 0.000000
vt 0.874301 0.937840 0.000000
vt 0.866114 0.941693 0.000000
vt 0.866113 0.986119 0.000000
vt 0.874300 0.986119 0.000000
vt 0.912291 0.421257 0.000000
vt 0.879750 0.421258 0.000000
vt 0.874301 0.421258 0.000000
vt 0.848785 0.421259 0.000000
vt 0.848785 0.937317 0.000000
vt 0.862261 0.937840 0.000000
vt 0.193797 0.551430 0.000000
vt 0.233600 0.551430 0.000000
vt 0.233452 0.517269 0.000000
vt 0.193943 0.517269 0.000000
vt 0.391694 0.019665 0.000000
vt 0.327496 0.019665 0.000000
vt 0.327496 0.388995 0.000000
vt 0.391694 0.388995 0.000000
vt 0.415327 0.019665 0.000000
vt 0.397143 0.019665 0.000000
vt 0.397143 0.388995 0.000000
vt 0.415327 0.388995 0.000000
vt 0.384533 0.985955 0.000000
vt 0.384533 0.937676 0.000000
vt 0.319449 0.937675 0.000000
vt 0.319449 0.985954 0.000000
vt 0.384533 0.421097 0.000000
vt 0.319449 0.421096 0.000000
vt 0.193943 0.139621 0.000000
vt 0.233452 0.139621 0.000000
vt 0.233599 0.105457 0.000000
vt 0.194177 0.072221 0.000000
vt 0.389983 0.985955 0.000000
vt 0.398170 0.985954 0.000000
vt 0.398170 0.941527 0.000000
vt 0.389982 0.937676 0.000000
vt 0.415498 0.937650 0.000000
vt 0.415117 0.420376 0.000000
vt 0.389696 0.421098 0.000000
vt 0.402022 0.937667 0.000000
vt 0.233420 0.064047 0.000000
vt 0.193976 0.064047 0.000000
vt 0.241216 0.520901 0.000000
vt 0.241501 0.551741 0.000000
vt 0.185896 0.551742 0.000000
vt 0.186179 0.520901 0.000000
vt 0.241500 0.105146 0.000000
vt 0.241215 0.135989 0.000000
vt 0.186179 0.135989 0.000000
vt 0.186399 0.072466 0.000000
vt 0.186341 0.063644 0.000000
vt 0.241055 0.063644 0.000000
vt 0.244844 0.517273 0.000000
vt 0.244843 0.139620 0.000000
vt 0.182551 0.517273 0.000000
vt 0.182551 0.139620 0.000000
vt 0.158527 0.139620 0.000000
vt 0.158527 0.517273 0.000000
vt 0.171434 0.736457 0.000000
vt 0.171480 0.617218 0.000000
vt 0.219264 0.616837 0.000000
vt 0.220322 0.736797 0.000000
vt 0.102715 0.609695 0.000000
vt 0.090187 0.609695 0.000000
vt 0.090187 0.982595 0.000000
vt 0.102715 0.982595 0.000000
vt 0.085121 0.609695 0.000000
vt 0.043819 0.609695 0.000000
vt 0.043819 0.982595 0.000000
vt 0.085121 0.982595 0.000000
vt 0.867369 0.019776 0.000000
vt 0.849185 0.019776 0.000000
vt 0.849185 0.389106 0.000000
vt 0.867369 0.389106 0.000000
vt 0.261965 0.517273 0.000000
vt 0.261964 0.139620 0.000000
vt 0.433417 0.020041 0.000000
vt 0.433418 0.389370 0.000000
vt 0.834523 0.389369 0.000000
vt 0.834523 0.020041 0.000000
vt 0.321161 0.019665 0.000000
vt 0.321161 0.388995 0.000000
vt 0.314000 0.937675 0.000000
vt 0.314000 0.985954 0.000000
vt 0.314000 0.421096 0.000000
vt 0.034648 0.556465 0.000000
vt 0.086693 0.522262 0.000000
vt 0.086693 0.046864 0.000000
vt 0.034648 0.081067 0.000000
vt 0.026078 0.556465 0.000000
vt 0.030630 0.556465 0.000000
vt 0.030630 0.081067 0.000000
vt 0.026078 0.081067 0.000000
vt 0.095263 0.046864 0.000000
vt 0.090711 0.046864 0.000000
vt 0.090711 0.522262 0.000000
vt 0.095263 0.522262 0.000000
vt 0.433533 0.419005 0.000000
vt 0.818758 0.419005 0.000000
vt 0.735045 0.653330 0.000000
vt 0.669194 0.652370 0.000000
vt 0.603342 0.652925 0.000000
vt 0.537491 0.653484 0.000000
vt 0.499922 0.654335 0.000000
vt 0.818758 0.935167 0.000000
vt 0.433533 0.935167 0.000000
vt 0.502182 0.853846 0.000000
vt 0.567326 0.852547 0.000000
vt 0.632471 0.852161 0.000000
vt 0.697615 0.852374 0.000000
vt 0.737304 0.852841 0.000000
vt 0.734692 0.796632 0.000000
vt 0.733793 0.740423 0.000000
vt 0.734020 0.684214 0.000000
vt 0.497895 0.708160 0.000000
vt 0.499284 0.761985 0.000000
vt 0.499576 0.815809 0.000000
vt 0.214139 0.975613 0.000000
vt 0.167950 0.976528 0.000000
vt 0.183868 0.947938 0.000000
vt 0.221676 0.946930 0.000000
vt 0.196975 0.771815 0.000000
vt 0.245290 0.770994 0.000000
vt 0.223786 0.801549 0.000000
vt 0.185968 0.802531 0.000000
vt 0.292685 0.860997 0.000000
vt 0.293207 0.917239 0.000000
vt 0.264114 0.898011 0.000000
vt 0.263601 0.852132 0.000000
vt 0.120257 0.884673 0.000000
vt 0.119803 0.827814 0.000000
vt 0.142443 0.849949 0.000000
vt 0.142969 0.895832 0.000000
vt 0.114458 0.977076 0.000000
vt 0.113453 0.943629 0.000000
vt 0.118338 0.943842 0.000000
vt 0.119376 0.977473 0.000000
vt 0.112084 0.826390 0.000000
vt 0.116961 0.826774 0.000000
vt 0.117469 0.885261 0.000000
vt 0.112574 0.885004 0.000000
vt 0.118651 0.763334 0.000000
vt 0.146109 0.763879 0.000000
vt 0.146189 0.768765 0.000000
vt 0.118500 0.768238 0.000000
vt 0.245960 0.763147 0.000000
vt 0.246144 0.768038 0.000000
vt 0.196199 0.768829 0.000000
vt 0.196049 0.763928 0.000000
vt 0.301081 0.766317 0.000000
vt 0.300532 0.801583 0.000000
vt 0.295644 0.801997 0.000000
vt 0.296184 0.766489 0.000000
vt 0.300905 0.917322 0.000000
vt 0.296024 0.917769 0.000000
vt 0.295530 0.859901 0.000000
vt 0.300419 0.859461 0.000000
vt 0.297157 0.980676 0.000000
vt 0.263231 0.982313 0.000000
vt 0.262951 0.977452 0.000000
vt 0.296984 0.975761 0.000000
vt 0.167298 0.984119 0.000000
vt 0.167236 0.979236 0.000000
vt 0.215040 0.978325 0.000000
vt 0.215272 0.983226 0.000000
vt 0.211362 0.896737 0.000000
vt 0.194205 0.896371 0.000000
vt 0.194206 0.852307 0.000000
vt 0.211360 0.852673 0.000000
vt 0.215124 0.844730 0.000000
vt 0.232303 0.844478 0.000000
vt 0.232294 0.880933 0.000000
vt 0.215133 0.881193 0.000000
vt 0.171210 0.895944 0.000000
vt 0.154056 0.896774 0.000000
vt 0.154056 0.852709 0.000000
vt 0.171213 0.851879 0.000000
vt 0.191495 0.882095 0.000000
vt 0.174334 0.881686 0.000000
vt 0.174325 0.845229 0.000000
vt 0.191504 0.845631 0.000000
vt 0.145700 0.804280 0.000000
vt 0.148756 0.771579 0.000000
vt 0.148193 0.802023 0.000000
vt 0.292983 0.799633 0.000000
vt 0.293565 0.769195 0.000000
vt 0.261611 0.803732 0.000000
vt 0.261629 0.801003 0.000000
vt 0.223046 0.804326 0.000000
vt 0.184433 0.805254 0.000000
vt 0.142921 0.804014 0.000000
vt 0.143532 0.771206 0.000000
vt 0.145291 0.850936 0.000000
vt 0.145818 0.897598 0.000000
vt 0.146048 0.944337 0.000000
vt 0.120794 0.941462 0.000000
vt 0.143427 0.941647 0.000000
vt 0.120920 0.771016 0.000000
vt 0.261887 0.943868 0.000000
vt 0.264622 0.943900 0.000000
vt 0.265447 0.974804 0.000000
vt 0.261273 0.897264 0.000000
vt 0.260764 0.850576 0.000000
vt 0.293091 0.804864 0.000000
vt 0.264110 0.806261 0.000000
vt 0.294419 0.973454 0.000000
vt 0.260273 0.974975 0.000000
vt 0.259401 0.946406 0.000000
vt 0.120980 0.946621 0.000000
vt 0.121841 0.975180 0.000000
vt 0.146003 0.947134 0.000000
vt 0.184651 0.944921 0.000000
vt 0.223246 0.943989 0.000000
vt 0.295887 0.761590 0.000000
vt 0.119398 0.982389 0.000000
vt 0.215126 0.808266 0.000000
vt 0.232301 0.808032 0.000000
vt 0.232292 0.917385 0.000000
vt 0.215134 0.917639 0.000000
vt 0.191493 0.918543 0.000000
vt 0.174336 0.918138 0.000000
vt 0.174327 0.808783 0.000000
vt 0.191502 0.809167 0.000000
vt 0.124071 0.696271 0.000000
vt 0.123355 0.656463 0.000000
vt 0.267730 0.655869 0.000000
vt 0.268448 0.695677 0.000000
vt 0.113612 0.767866 0.000000
vt 0.301866 0.975171 0.000000
vt 0.211365 0.940801 0.000000
vt 0.194210 0.940434 0.000000
vt 0.194204 0.808244 0.000000
vt 0.211362 0.808606 0.000000
vt 0.171211 0.940013 0.000000
vt 0.154053 0.940839 0.000000
vt 0.154063 0.808644 0.000000
vt 0.171219 0.807813 0.000000
vt 0.123308 0.736079 0.000000
vt 0.267686 0.735485 0.000000
vt 0.267388 0.616061 0.000000
vt 0.123015 0.616655 0.000000
# 249 texture coords

g Wall001_C019
usemtl 02___Default
s 8
f -160/-246/-114 -161/-247/-114 -162/-248/-114 -163/-249/-114 
f -156/-242/-114 -157/-243/-114 -158/-244/-114 -159/-245/-114 
s 64
f -152/-238/-113 -153/-239/-113 -154/-240/-113 -155/-241/-113 
s 8
f -157/-243/-114 -150/-236/-114 -151/-237/-114 -158/-244/-114 
s 64
f -146/-232/-113 -147/-233/-113 -148/-234/-113 -149/-235/-113 
f -155/-241/-113 -146/-232/-113 -149/-235/-113 
s 8
f -142/-228/-114 -143/-229/-114 -144/-230/-114 -145/-231/-114 
f -138/-224/-112 -139/-225/-112 -140/-226/-112 -141/-227/-112 
s 16
f -134/-220/-111 -135/-221/-111 -136/-222/-111 -137/-223/-111 
s 8
f -130/-216/-112 -131/-217/-112 -132/-218/-112 -133/-219/-112 
f -131/-217/-112 -128/-214/-112 -129/-215/-112 -132/-218/-112 
f -124/-210/-110 -125/-211/-110 -126/-212/-110 -127/-213/-110 
s 16
f -120/-206/-108 -121/-207/-109 -122/-208/-109 -123/-209/-109 
f -120/-206/-108 -117/-203/-107 -118/-204/-107 -119/-205/-107 
f -116/-202/-106 -120/-206/-108 -119/-205/-107 
s off
f -124/-210/-105 -114/-200/-105 -115/-201/-105 -125/-211/-105 
f -160/-198/-104 -144/-230/-104 -143/-229/-104 -161/-199/-104 
f -150/-196/-103 -142/-228/-103 -145/-231/-103 -151/-197/-103 
f -138/-194/-102 -126/-212/-102 -125/-211/-102 -139/-195/-102 
f -128/-192/-101 -124/-210/-101 -127/-213/-101 -129/-193/-101 
f -114/-200/-100 -124/-210/-100 -128/-192/-100 -113/-191/-100 
f -112/-190/-99 -139/-195/-99 -125/-211/-99 -115/-201/-99 
s 1
f -138/-194/-98 -135/-188/-97 -111/-189/-97 -161/-199/-98 
s 2
f -142/-228/-114 -127/-213/-114 -126/-212/-114 -143/-229/-114 
s 1
f -129/-193/-96 -127/-213/-103 -142/-228/-103 -150/-196/-96 
f -148/-184/-106 -118/-185/-106 -117/-186/-106 -149/-187/-106 
s 2
f -107/-180/-95 -108/-181/-94 -109/-182/-94 -110/-183/-95 
s 8
f -147/-176/-97 -146/-177/-97 -116/-178/-97 -119/-179/-97 
s 2
f -154/-172/-114 -153/-173/-114 -122/-174/-114 -121/-175/-114 
s 64
f -111/-168/-113 -104/-169/-113 -105/-170/-113 -106/-171/-113 
s 1
f -135/-188/-97 -134/-166/-97 -104/-167/-97 -111/-189/-97 
s 4
f -105/-162/-114 -104/-163/-114 -134/-164/-114 -137/-165/-114 
s off
f -152/-238/-93 -155/-241/-93 -157/-243/-93 -156/-242/-93 
f -155/-241/-92 -149/-235/-92 -150/-236/-92 -157/-243/-92 
f -111/-168/-92 -106/-171/-92 -162/-248/-92 -161/-247/-92 
f -112/-160/-91 -103/-161/-91 -140/-226/-91 -139/-225/-91 
f -136/-222/-90 -135/-221/-90 -138/-224/-90 -141/-227/-90 
f -101/-158/-91 -102/-159/-91 -131/-217/-91 -130/-216/-91 
f -120/-206/-90 -123/-209/-90 -133/-219/-90 -132/-218/-90 
f -102/-159/-91 -113/-157/-91 -128/-214/-91 -131/-217/-91 
f -117/-203/-90 -120/-206/-90 -132/-218/-90 -129/-215/-90 
s 1
f -117/-186/-106 -129/-193/-96 -150/-196/-96 -149/-187/-106 
f -126/-212/-89 -138/-194/-98 -161/-199/-98 -143/-229/-89 
s 4
f -97/-153/-114 -98/-154/-114 -99/-155/-88 -100/-156/-88 
s 8
f -93/-149/-87 -94/-150/-87 -95/-151/-87 -96/-152/-87 
s 32
f -89/-145/-85 -90/-146/-85 -91/-147/-86 -92/-148/-86 
s off
f -95/-151/-84 -94/-150/-84 -97/-153/-84 -100/-156/-84 
f -91/-147/-83 -90/-146/-83 -99/-155/-83 -98/-154/-83 
f -154/-240/-113 -146/-232/-113 -155/-241/-113 
f -120/-206/-82 -116/-202/-82 -121/-207/-82 
f -154/-172/-81 -121/-175/-81 -116/-178/-81 -146/-177/-81 
s 2
f -87/-141/-94 -88/-142/-80 -118/-143/-114 -148/-144/-114 
f -85/-139/-114 -86/-140/-94 -87/-141/-94 -148/-144/-114 
f -84/-138/-80 -85/-139/-114 -148/-144/-114 
f -82/-134/-79 -83/-135/-77 -147/-136/-78 -119/-137/-79 
f -80/-132/-77 -81/-133/-94 -82/-134/-79 -119/-137/-79 
f -79/-131/-77 -80/-132/-77 -119/-137/-79 
f -78/-130/-80 -79/-131/-77 -119/-137/-79 -118/-143/-114 
f -76/-128/-75 -77/-129/-76 -78/-130/-80 -118/-143/-114 
f -76/-128/-75 -118/-143/-114 -88/-142/-80 
f -75/-127/-74 -84/-138/-80 -148/-144/-114 -147/-136/-78 
f -73/-125/-73 -74/-126/-80 -75/-127/-74 -147/-136/-78 
f -73/-125/-73 -147/-136/-78 -83/-135/-77 
f -69/-121/-73 -70/-122/-80 -71/-123/-80 -72/-124/-73 
f -65/-117/-114 -66/-118/-95 -67/-119/-76 -68/-120/-95 
f -61/-113/-72 -62/-114/-71 -63/-115/-71 -64/-116/-72 
f -57/-109/-79 -58/-110/-79 -59/-111/-79 -60/-112/-79 
s off
f -55/-105/-70 -56/-106/-70 -85/-107/-70 -84/-108/-70 
f -86/-101/-69 -53/-102/-69 -54/-103/-69 -87/-104/-69 
f -51/-97/-68 -52/-98/-68 -76/-99/-68 -88/-100/-68 
f -77/-93/-67 -49/-94/-67 -50/-95/-67 -78/-96/-67 
f -47/-89/-66 -48/-90/-66 -80/-91/-66 -79/-92/-66 
f -81/-85/-65 -45/-86/-65 -46/-87/-65 -82/-88/-65 
f -43/-81/-64 -44/-82/-64 -73/-83/-64 -83/-84/-64 
f -74/-77/-63 -41/-78/-63 -42/-79/-63 -75/-80/-63 
f -108/-73/-62 -39/-74/-62 -40/-75/-62 -109/-76/-62 
f -35/-69/-61 -36/-70/-61 -37/-71/-61 -38/-72/-61 
f -110/-65/-60 -33/-66/-60 -34/-67/-60 -107/-68/-60 
f -29/-61/-59 -30/-62/-59 -31/-63/-59 -32/-64/-59 
f -26/-58/-58 -27/-59/-58 -52/-98/-58 -28/-60/-58 
f -49/-94/-57 -68/-120/-57 -67/-119/-57 -50/-95/-57 
f -24/-56/-56 -25/-57/-56 -48/-90/-56 -47/-89/-56 
f -25/-57/-55 -22/-54/-55 -23/-55/-55 -48/-90/-55 
f -66/-118/-54 -65/-117/-54 -37/-52/-54 -36/-53/-54 
f -20/-50/-53 -21/-51/-53 -28/-60/-53 -52/-98/-53 
f -58/-110/-52 -57/-109/-52 -34/-48/-52 -33/-49/-52 
f -17/-45/-51 -18/-46/-51 -56/-106/-51 -19/-47/-51 
f -53/-102/-50 -60/-112/-50 -59/-111/-50 -54/-103/-50 
f -16/-44/-49 -20/-50/-49 -52/-98/-49 -51/-97/-49 
f -13/-41/-48 -14/-42/-48 -15/-43/-48 -44/-82/-48 
f -62/-114/-47 -61/-113/-47 -40/-39/-47 -39/-40/-47 
f -11/-37/-46 -12/-38/-46 -48/-90/-46 -23/-55/-46 
f -45/-86/-45 -64/-116/-45 -63/-115/-45 -46/-87/-45 
f -10/-36/-44 -13/-41/-44 -44/-82/-44 -43/-81/-44 
f -8/-34/-43 -9/-35/-43 -44/-82/-43 -15/-43/-43 
f -41/-78/-42 -72/-124/-42 -71/-123/-42 -42/-79/-42 
f -6/-32/-41 -7/-33/-41 -56/-106/-41 -55/-105/-41 
f -7/-33/-40 -5/-31/-40 -19/-47/-40 -56/-106/-40 
f -70/-122/-39 -69/-121/-39 -31/-29/-39 -30/-30/-39 
s 2
f -5/-31/-77 -7/-33/-80 -6/-32/-38 -71/-123/-80 
f -70/-122/-80 -5/-31/-77 -71/-123/-80 
f -72/-124/-73 -9/-35/-73 -8/-34/-73 -69/-121/-73 
f -22/-54/-37 -25/-57/-79 -24/-56/-80 -67/-119/-76 
f -66/-118/-95 -22/-54/-37 -67/-119/-76 
f -68/-120/-95 -27/-59/-114 -26/-58/-114 -65/-117/-114 
s off
f -78/-96/-36 -50/-95/-36 -47/-89/-36 -79/-28/-36 
f -49/-94/-35 -77/-93/-35 -76/-99/-35 -52/-98/-35 
f -75/-80/-34 -42/-79/-34 -55/-105/-34 -84/-27/-34 
f -41/-78/-33 -74/-77/-33 -73/-83/-33 -44/-82/-33 
f -38/-72/-32 -37/-71/-32 -28/-25/-32 -4/-26/-32 
f -36/-70/-31 -35/-69/-31 -3/-23/-31 -23/-24/-31 
f -32/-64/-30 -31/-63/-30 -15/-21/-30 -2/-22/-30 
f -30/-62/-29 -29/-61/-29 -1/-19/-29 -19/-20/-29 
f -67/-119/-28 -24/-56/-28 -47/-89/-28 -50/-95/-28 
f -68/-120/-27 -49/-94/-27 -52/-98/-27 -27/-59/-27 
f -65/-117/-26 -26/-58/-26 -28/-60/-26 -37/-52/-26 
f -36/-53/-25 -23/-55/-25 -22/-54/-25 -66/-118/-25 
f -71/-123/-24 -6/-32/-24 -55/-105/-24 -42/-79/-24 
f -72/-124/-23 -41/-78/-23 -44/-82/-23 -9/-35/-23 
f -69/-121/-22 -8/-34/-22 -15/-43/-22 -31/-29/-22 
f -30/-30/-21 -19/-47/-21 -5/-31/-21 -70/-122/-21 
s 2
f -110/-183/-95 -109/-182/-94 -35/-17/-20 -38/-18/-76 
f -108/-181/-94 -107/-180/-95 -29/-15/-20 -32/-16/-20 
f -14/-42/-18 -13/-41/-19 -10/-36/-77 -63/-115/-71 
f -62/-114/-71 -14/-42/-18 -63/-115/-71 
f -64/-116/-72 -12/-38/-71 -11/-37/-17 -61/-113/-72 
f -21/-51/-79 -20/-50/-95 -16/-44/-95 -59/-111/-79 
f -58/-110/-79 -21/-51/-79 -59/-111/-79 
f -60/-112/-79 -18/-46/-37 -17/-45/-37 -57/-109/-79 
s off
f -87/-104/-16 -54/-103/-16 -51/-97/-16 -88/-14/-16 
f -53/-102/-15 -86/-101/-15 -85/-107/-15 -56/-106/-15 
f -82/-88/-14 -46/-87/-14 -43/-81/-14 -83/-13/-14 
f -45/-86/-13 -81/-85/-13 -80/-91/-13 -48/-90/-13 
f -109/-76/-12 -40/-75/-12 -23/-11/-12 -3/-12/-12 
f -39/-74/-11 -108/-73/-11 -2/-9/-11 -15/-10/-11 
f -107/-68/-10 -34/-67/-10 -19/-7/-10 -1/-8/-10 
f -33/-66/-9 -110/-65/-9 -4/-5/-9 -28/-6/-9 
f -57/-109/-8 -17/-45/-8 -19/-47/-8 -34/-48/-8 
f -33/-49/-7 -28/-60/-7 -21/-51/-7 -58/-110/-7 
f -59/-111/-6 -16/-44/-6 -51/-97/-6 -54/-103/-6 
f -60/-112/-5 -53/-102/-5 -56/-106/-5 -18/-46/-5 
f -61/-113/-4 -11/-37/-4 -23/-55/-4 -40/-39/-4 
f -39/-40/-3 -15/-43/-3 -14/-42/-3 -62/-114/-3 
f -63/-115/-2 -10/-36/-2 -43/-81/-2 -46/-87/-2 
f -64/-116/-1 -45/-86/-1 -48/-90/-1 -12/-38/-1 
s 2
f -38/-18/-76 -4/-4/-76 -110/-183/-95 
f -1/-3/-76 -29/-15/-20 -107/-180/-95 
f -32/-16/-20 -2/-2/-20 -108/-181/-94 
f -3/-1/-20 -35/-17/-20 -109/-182/-94 
# 133 polygons - 16 triangles

