# 3ds Max Wavefront OBJ Exporter v0.97b - (c)2007 guruware
# File Created: 21.07.2016 02:51:29

mtllib MoonTemple_WaterSurf.mtl

#
# object waterplane
#

v  -999.306458 -1092.468994 1276.685059
v  -999.215332 -1101.383423 1047.037842
v  -1191.992554 -1082.506714 1031.071533
v  -1193.974365 -1091.049561 1283.250000
v  -1252.538330 -1121.607178 1492.838867
v  -866.648682 -1122.280273 1492.801147
v  -938.104248 -930.913208 915.975464
v  -1128.185425 -921.400146 908.699097
v  -1174.620361 -1043.236328 1001.628174
v  -871.477600 -423.131592 -41.035645
v  -799.039429 -423.319092 207.278168
v  -787.534058 -439.634644 4.112823
v  -848.042908 -426.886719 -50.431183
v  -300.785004 -200.900879 234.099213
v  -305.280182 -204.464355 29.154327
v  -425.466034 -312.240479 59.930817
v  -428.673950 -314.302002 263.112152
v  -382.228912 -268.345825 256.767303
v  -46.513702 17.668945 243.705460
v  -51.902039 14.647705 24.073639
v  -178.714981 -92.354736 29.146118
v  -175.756592 -89.853027 260.792175
v  -646.752563 -424.430420 205.823685
v  -553.596069 -422.424072 210.982285
v  -551.654175 -426.919922 19.874756
v  -565.749084 -425.704346 16.716522
v  -647.665344 -424.858154 -4.383331
v  -966.720825 -759.286499 789.200073
v  -1158.732422 -760.919312 790.401489
v  -1327.027344 -423.075684 311.520630
v  -1281.450928 -424.268799 357.649597
v  -1379.468994 -421.780396 223.946640
v  -1341.794800 -421.841675 290.737213
v  -1091.296387 -422.933228 533.335938
v  -909.324707 -423.735840 290.053101
v  -1239.308472 -422.560181 420.279755
v  -1149.750244 -422.919434 538.082275
v  -1310.183472 -424.725586 350.075378
v  -1193.243652 -424.927856 545.778809
v  -940.910645 -423.174683 542.651001
v  -945.655273 -424.401489 -161.096252
v  -1176.138916 -423.697388 -169.295837
v  -1177.848145 -423.816040 -163.222900
v  -1351.506226 -423.128174 -87.652222
v  -1369.117188 -424.314087 -32.317078
v  -950.161865 -423.334717 -142.586914
v  -1216.385498 -423.972168 -148.790405
v  -1265.881348 -423.681030 -167.260803
v  -1293.263306 -422.346436 -168.091553
v  -1229.191162 -423.836670 -163.763916
v  -1388.276611 -422.429077 21.956085
v  -1070.230713 -423.655396 -219.666321
v  -1155.499756 -423.506714 -207.516541
v  -1010.759399 -423.714233 -190.574463
v  -1023.409241 -423.666504 -216.945068
v  -868.294067 -424.021240 -13.774261
v  -765.024780 -447.943481 6.350433
v  -780.242493 -430.713013 -35.013855
v  -1163.576172 -597.827026 670.289246
v  -939.262390 -594.450195 667.713013
v  -1154.157471 -690.360352 738.319580
v  -1152.083740 -696.202515 742.616821
v  -1158.732910 -714.300781 755.974182
v  -511.820587 -388.290161 14.774323
v  -538.149353 -412.533936 214.758774
v  -1259.104492 -423.518921 383.154358
v  -664.389282 -425.027832 1.867462
v  -698.802856 -424.661499 9.097565
v  -668.346558 -424.789063 204.314514
v  -705.413818 -424.671143 12.074188
v  -732.107056 -423.630737 11.007874
v  -729.654053 -423.533569 206.240204
v  269.682556 17.501221 266.323212
v  266.577454 17.788330 -6.864288
v  474.386475 26.379395 266.322937
v  471.374390 25.772705 -6.863983
v  635.062378 86.279297 266.319946
v  635.075317 86.197754 -6.860962
# 78 vertices

vn 0.019520 0.997684 0.066008
vn 0.049692 0.904630 0.425149
vn 0.033348 0.938128 0.345856
vn 0.010358 0.996551 0.082727
vn 0.009609 0.992976 0.118243
vn 0.005890 0.993608 0.112880
vn 0.030874 0.671820 0.740679
vn 0.030204 0.671899 0.740603
vn 0.026855 0.674910 0.737833
vn 0.102676 0.994683 -0.003108
vn 0.047594 0.995294 -0.082072
vn 0.194925 0.980311 0.040742
vn 0.114549 0.992882 0.038006
vn -0.501003 0.865381 -0.034940
vn -0.500198 0.865918 -0.025437
vn -0.498043 0.867148 -0.028448
vn -0.502470 0.864330 -0.045426
vn -0.493689 0.630860 -0.621178
vn -0.477036 0.878892 -0.023640
vn -0.479840 0.877363 -0.020840
vn -0.487932 0.872889 -0.024456
vn -0.487110 0.873344 -0.026139
vn -0.007329 0.999951 -0.007035
vn -0.206897 0.978090 -0.032875
vn -0.258352 0.966053 -0.012343
vn 0.034984 0.999297 0.015132
vn 0.000363 0.999998 -0.001667
vn 0.031300 0.664311 0.747421
vn 0.031498 0.664548 0.747211
vn 0.020028 0.999799 0.000305
vn -0.167340 0.969455 0.171226
vn 0.008837 0.999955 0.003864
vn 0.239701 0.954804 -0.164271
vn 0.013923 0.923950 0.382478
vn 0.001290 0.999999 -0.000485
vn -0.004485 0.999960 -0.007871
vn 0.046008 0.915125 0.402247
vn -0.017936 0.998762 0.045505
vn 0.041226 0.923473 0.382948
vn 0.009997 0.923290 0.384006
vn -0.004907 0.999501 -0.031409
vn 0.002146 0.999913 0.013072
vn 0.002159 0.999886 0.015042
vn 0.004825 0.999872 0.015463
vn -0.005811 0.999833 -0.017597
vn -0.006678 0.998931 -0.046008
vn 0.001197 0.999986 -0.005041
vn 0.009647 0.999924 0.008082
vn 0.032253 0.998807 0.038152
vn 0.002592 0.999985 0.005032
vn -0.009575 0.999425 -0.032945
vn 0.001516 0.999980 0.006203
vn 0.001950 0.999984 0.005425
vn -0.092629 -0.958549 0.264773
vn 0.000149 0.999999 0.001455
vn -0.115435 0.992360 0.038063
vn 0.000195 0.999356 0.035850
vn 0.218877 0.948150 0.240509
vn 0.038064 0.669633 0.742661
vn 0.031856 0.662221 0.749276
vn 0.030897 0.663181 0.748421
vn 0.031136 0.663842 0.747837
vn 0.031459 0.664773 0.747011
vn -0.514781 0.857312 -0.030167
vn -0.457090 0.889349 -0.033424
vn -0.004919 0.999984 0.002449
vn -0.001601 0.999998 -0.001371
vn 0.003272 0.999995 0.000065
vn 0.000971 0.999998 -0.001786
vn 0.011231 0.999937 0.000299
vn -0.214426 0.976741 -0.008526
vn -0.026442 0.998576 -0.047530
vn -0.003276 0.999984 -0.004701
vn -0.026706 0.999643 -0.001543
vn -0.233917 0.972258 -0.011991
vn 0.002376 0.999996 -0.001400
vn 0.002890 0.999992 -0.002669
vn 0.001840 0.999998 -0.000077
vn 0.001538 0.999999 0.000668
vn -0.002355 0.999984 0.004990
vn -0.032752 0.998955 0.030302
vn -0.000459 0.999988 0.004929
vn -0.001081 0.999999 -0.001015
vn -0.003293 0.999994 -0.001513
vn 0.040827 0.998278 -0.040137
vn 0.033850 0.998761 -0.034828
vn 0.075055 0.994734 -0.066174
vn 0.077593 0.994393 -0.068105
# 88 vertex normals

vt 0.999999 -1.968751 0.000000
vt 1.000000 0.000000 0.000000
vt 0.000000 -0.000001 0.000000
vt 0.000000 -1.968751 0.000000
vt 1.375000 -0.000001 0.000000
vt 0.375000 -0.000001 0.000000
vt -0.000000 -1.250000 0.000000
vt 2.375000 -1.250000 0.000000
vt 1.000000 -1.312500 0.000000
vt 1.468750 0.000000 0.000000
vt 0.500000 0.000000 0.000000
vt 0.103167 -1.041686 0.000000
vt 0.006421 -1.295643 0.000000
vt 1.286691 -1.453105 0.000000
vt 1.750000 -2.750000 0.000000
vt 1.750000 -1.750000 0.000000
vt 1.405391 -1.405391 0.000000
vt 1.242188 0.875000 0.000000
vt 0.242188 0.875001 0.000000
vt 0.496094 0.000000 0.000000
vt 1.435774 0.000000 0.000000
vt 1.390972 0.280480 0.000000
vt 1.499977 0.000000 0.000000
vt 0.281246 -0.875000 0.000000
vt 1.499977 -0.875000 0.000000
vt 1.262493 -0.991932 0.000000
vt 2.000000 -1.000000 0.000000
vt 2.000000 -0.179211 0.000000
vt 1.858233 -0.146874 0.000000
vt 1.281651 -0.000000 0.000000
vt 0.250000 -1.312500 0.000000
vt 1.218750 -1.312500 0.000000
vt -0.000000 0.000000 0.000000
vt 0.411286 -0.691799 0.000000
vt 0.672616 -0.934404 0.000000
vt 0.029027 -0.032246 0.000000
vt 0.287837 -0.514432 0.000000
vt 1.871603 -2.162584 0.000000
vt 3.250000 -0.500000 0.000000
vt 1.115554 -1.582110 0.000000
vt 1.585737 -2.625001 0.000000
vt 0.496905 -0.888085 0.000000
vt 1.178033 -1.733092 0.000000
vt 2.968750 -2.625001 0.000000
vt 2.469929 -0.441151 0.000000
vt 1.616375 -0.272985 0.000000
vt 1.573376 -0.425783 0.000000
vt 0.234989 -0.948722 0.000000
vt 0.113955 -1.323137 0.000000
vt 2.401279 -0.722868 0.000000
vt 1.023896 -0.631562 0.000000
vt 0.691752 -0.448897 0.000000
vt 0.613864 -0.431514 0.000000
vt 0.883278 -0.467150 0.000000
vt 0.005034 -1.657127 0.000000
vt 2.240533 -0.040543 0.000000
vt 1.680888 -0.126327 0.000000
vt 2.513157 -0.184813 0.000000
vt 2.449784 -0.052704 0.000000
vt 1.085497 -1.390814 0.000000
vt 1.281231 -1.750000 0.000000
vt 0.281246 -1.750000 0.000000
vt 0.348494 -0.051254 0.000000
vt 0.185400 -0.000000 0.000000
vt 0.000000 -0.000000 0.000000
vt 1.500000 -0.000000 0.000000
vt 0.281250 -1.312500 0.000000
vt 1.500000 -1.312500 0.000000
vt 0.083489 -0.157332 0.000000
vt -0.000000 1.312500 0.000000
vt 0.020744 0.619164 0.000000
vt 1.218750 1.312500 0.000000
vt 0.072559 0.473430 0.000000
vt 0.000000 0.275937 0.000000
vt 0.145765 -0.617903 0.000000
vt 1.070168 -0.744020 0.000000
vt 0.179211 -0.875000 0.000000
vt 1.000000 -0.875000 0.000000
vt 0.923082 -1.220075 0.000000
vt 1.191195 -0.026485 0.000000
vt 0.930061 -0.080545 0.000000
vt 1.086010 -0.981625 0.000000
vt 0.856209 -0.113660 0.000000
vt 0.584601 -0.101636 0.000000
vt 0.600221 -0.994276 0.000000
vt 0.000000 -1.000000 0.000000
# 86 texture coords

g waterplane
usemtl 07___Default
s 8
f -78/-86/-88 -77/-85/-87 -76/-84/-86 -75/-83/-85 
f -78/-82/-88 -75/-81/-85 -74/-80/-84 -73/-79/-83 
f -77/-78/-87 -72/-77/-82 -71/-76/-81 -70/-75/-80 
f -77/-78/-87 -70/-75/-80 -76/-74/-86 
f -69/-73/-79 -68/-72/-78 -67/-71/-77 -66/-70/-76 
f -65/-69/-75 -64/-68/-74 -63/-67/-73 -62/-66/-72 
f -65/-69/-75 -62/-66/-72 -61/-65/-71 
f -60/-64/-70 -59/-84/-69 -58/-63/-68 -57/-62/-67 
f -56/-61/-66 -55/-60/-65 -54/-59/-64 -53/-58/-63 
f -52/-57/-62 -56/-61/-66 -53/-58/-63 
f -71/-56/-81 -72/-55/-82 -51/-85/-61 -50/-54/-60 
f -49/-53/-59 -48/-52/-58 -47/-51/-57 -46/-50/-56 
f -45/-49/-55 -44/-48/-54 -43/-47/-53 -42/-46/-52 
f -49/-53/-59 -41/-45/-51 -48/-52/-58 
f -40/-44/-50 -42/-46/-52 -43/-47/-53 
f -45/-49/-55 -39/-43/-49 -44/-48/-54 
f -38/-42/-48 -37/-41/-47 -36/-40/-46 
f -35/-39/-45 -34/-38/-44 -33/-37/-43 -38/-42/-48 
f -38/-42/-48 -36/-40/-46 -32/-36/-42 -35/-39/-45 
f -31/-35/-41 -30/-34/-40 -35/-39/-45 -32/-36/-42 
f -31/-35/-41 -32/-36/-42 -29/-33/-39 
f -34/-38/-44 -28/-32/-38 -33/-37/-43 
f -27/-31/-37 -26/-30/-36 -37/-41/-47 -38/-42/-48 
f -27/-31/-37 -38/-42/-48 -25/-29/-35 -24/-28/-34 
f -69/-73/-79 -23/-27/-33 -68/-72/-78 
f -65/-26/-75 -57/-62/-67 -58/-63/-68 -64/-25/-74 
f -22/-24/-32 -21/-23/-31 -67/-22/-77 
f -39/-21/-49 -45/-49/-55 -20/-20/-30 -19/-19/-29 
f -20/-20/-30 -45/-49/-55 -42/-18/-52 -40/-22/-50 
f -20/-17/-30 -18/-16/-28 -51/-85/-61 -19/-15/-29 
f -18/-16/-28 -17/-14/-27 -51/-85/-61 
f -16/-13/-26 -50/-54/-60 -51/-85/-61 -17/-14/-27 
f -62/-66/-72 -63/-67/-73 -15/-12/-25 -14/-11/-24 
f -54/-10/-64 -55/-9/-65 -14/-11/-24 -15/-12/-25 
f -47/-51/-57 -48/-52/-58 -13/-8/-23 -44/-48/-54 
f -44/-48/-54 -13/-8/-23 -43/-47/-53 
f -52/-57/-62 -12/-7/-22 -56/-61/-66 
f -12/-7/-22 -11/-6/-21 -10/-5/-20 -56/-61/-66 
f -11/-6/-21 -9/-4/-19 -10/-5/-20 
f -9/-4/-19 -8/-3/-18 -7/-2/-17 -10/-5/-20 
f -8/-3/-18 -22/-24/-32 -7/-2/-17 
f -22/-24/-32 -67/-22/-77 -68/-1/-78 -7/-2/-17 
s off
f -59/-84/-16 -60/-64/-16 -6/-64/-16 -5/-84/-16 
f -5/-84/-15 -6/-64/-15 -4/-64/-15 -3/-84/-15 
f -3/-84/-14 -4/-64/-14 -2/-64/-14 -1/-84/-14 
s 1
f -28/-52/-13 -47/-77/-12 -44/-76/-11 -33/-53/-10 
s 2
f -23/-38/-9 -69/-46/-8 -33/-53/-7 -44/-76/-6 
f -68/-71/-5 -23/-38/-9 -44/-76/-6 
s 4
f -38/-49/-4 -33/-53/-3 -69/-46/-2 -66/-74/-1 
# 32 polygons - 17 triangles

